<?xml version="1.0" encoding="UTF-8"?>
<svg width="36px" height="36px" viewBox="0 0 36 36" version="1.1" xmlns="http://www.w3.org/2000/svg" xmlns:xlink="http://www.w3.org/1999/xlink">
    <!-- Generator: Sketch 52.2 (67145) - http://www.bohemiancoding.com/sketch -->
    <title>Group 23</title>
    <desc>Created with Sketch.</desc>
    <g id="SDX-Jason-presents" stroke="none" stroke-width="1" fill="none" fill-rule="evenodd">
        <g id="SDX-MACs---Bandwidth-Change---Step-1-Config---Dynamic-200" transform="translate(-320.000000, -2523.000000)">
            <g id="Group-2-Copy-4" transform="translate(-364.000000, 2291.000000)">
                <g id="Icon-Copy-3" transform="translate(685.000000, 233.000000)">
                    <g id="Group-23">
                        <circle id="Oval" stroke="#D0D1D1" fill="#D0D1D1" fill-rule="nonzero" cx="17" cy="17" r="17"></circle>
                        <path d="M17.8774508,15.1998407 C18.1032474,14.9690087 18.4699671,14.9690087 18.6916079,15.1998407 C20.0724943,16.6115216 20.0724943,18.912325 18.6916079,20.3240058 L13.7899354,25.3349881 C13.0993856,26.0409375 12.1915639,26.3939394 11.283529,26.3939394 C10.3757073,26.3939394 9.46788558,26.0409375 8.77733582,25.3349881 L8.04000705,24.5811621 C7.36650658,23.897163 7,22.9865259 7,22.0190795 C7,21.0519055 7.37087546,20.1410505 8.04000705,19.456997 L12.9416796,14.4460147 C13.1676893,14.2149648 13.529827,14.2149648 13.7558368,14.4460147 C13.9816334,14.6769011 13.9816334,15.0472781 13.7558368,15.2783824 L8.8541642,20.2893647 C7.92071526,21.2435755 7.92071526,22.7948558 8.8541642,23.7490667 L9.59154625,24.5028927 C10.5249419,25.4571036 12.0423825,25.4571036 12.9757782,24.5028927 L17.8774508,19.4919104 C18.8108997,18.5376451 18.8108997,16.9864193 17.8774508,16.032154 C17.6516542,15.8011041 17.6516542,15.4306727 17.8774508,15.1998407 Z M25.9640595,8.81256873 C26.6333676,9.49656926 27,10.4071358 27,11.3744527 C27,12.3416063 26.6292104,13.2523906 25.9596891,13.9363367 L21.0563334,18.9469306 C20.9455815,19.0646251 20.7962956,19.1212121 20.6513802,19.1212121 C20.5062515,19.1212121 20.3572321,19.0603225 20.246267,18.9469306 C20.0203396,18.7161165 20.0203396,18.3457138 20.246267,18.1146818 L25.1496228,13.1040879 C26.083339,12.149951 26.083339,10.598791 25.1496228,9.64465409 L24.4119875,8.89088649 C23.478218,7.93669513 21.9603097,7.93669513 21.0265402,8.89088649 L16.1231844,13.9014804 C15.1894683,14.8556173 15.1894683,16.4067773 16.1231844,17.3609142 C16.3490586,17.5919462 16.3490586,17.9623489 16.1231844,18.1932175 C15.8973103,18.4242494 15.534835,18.4242494 15.3087477,18.1932175 C13.9273871,16.781646 13.9273871,14.4809665 15.3087477,13.069395 L20.2121034,8.05880112 C21.5936772,6.64706629 23.8448505,6.64706629 25.2264243,8.05880112 L25.9640595,8.81256873 Z" id="Link" fill="#FFFFFF"></path>
                    </g>
                </g>
            </g>
        </g>
    </g>
</svg>