<?xml version="1.0" standalone="no"?>
<!DOCTYPE svg PUBLIC "-//W3C//DTD SVG 1.1//EN" "http://www.w3.org/Graphics/SVG/1.1/DTD/svg11.dtd" >
<svg xmlns="http://www.w3.org/2000/svg">
<metadata>Generated Uisng opnesource IcoMoon for Optus</metadata>
<defs>
<font id="icooptus" horiz-adv-x="1024">
<font-face units-per-em="1024" ascent="1024" descent="0" />
<missing-glyph horiz-adv-x="1024" />
<glyph unicode="&#x20;" d="" />
<glyph unicode="&#xe001;" glyph-name="3g4g" d="M276 622q-28 0-55 12t-45 32l-40-44q22-28 59-43t83-15q60 0 102 28 44 34 44 92 0 32-19 57t-53 39q30 12 47 37t17 57q0 52-39 85t-103 33q-46 0-81-18t-53-48l46-38q14 18 36 31t48 13q34 0 56-17t22-46-23-45-57-16h-50v-58h50q38 0 64-17t26-47-23-47-59-17zM686 562q92 0 147 63t55 155v16h-182v-62h110q-8-52-41-80t-89-28q-62 0-103 43t-41 109 41 108 105 42q70 0 112-50l48 48q-28 32-69 49t-91 17q-94 0-155-61t-61-153q0-66 30-118 30-46 79-72t105-26zM382 292h-66v-112h-106l150 274h-74l-154-284v-50h184v-80h66v80h62v60h-62v112zM892 266h-182v-62h110q-8-52-42-80t-90-28q-62 0-102 42t-40 108 41 108 105 42q68 0 110-50l50 48q-28 32-70 50t-90 18q-94 0-156-61t-62-155q0-66 32-116 30-48 79-73t103-25q94 0 149 62t55 156v16z" />
<glyph unicode="&#xe002;" glyph-name="4g" d="M334 566h-66v-154h-176l204 382h-76l-212-394v-52h260v-114h66v114h94v64h-94v154zM772 532v-64h168q-8-84-59-130t-137-46q-92 0-153 61t-61 159 62 159 156 61q50 0 93-19t73-53l50 50q-38 44-95 68t-121 22q-84 0-150-37t-104-102-38-151 42-154q38-62 104-97t142-35q124 0 200 84 72 82 72 208v16h-244z" />
<glyph unicode="&#xe003;" glyph-name="4gplus-stacked" d="M48 160v-118h-48v298h116q50 0 78-24t28-66-28-66-78-24h-68zM48 296v-92h66q58 0 58 46t-58 46h-66zM474 42h-214v298h50v-252h164v-46zM746 160q0-60-36-92t-92-32-91 32-35 92v180h48v-176q0-42 21-61t58-19 57 19 20 61v176h50v-180zM996 274q-40 26-84 26-30 0-49-12t-18-31 16-28 47-13l20-4q96-12 96-82 0-44-34-69t-86-25q-32 0-65 11t-55 29l26 40q16-16 42-25t54-9 48 12 20 31-17 28-51 13l-22 4q-90 12-90 82 0 44 34 69t84 25q60 0 108-32zM334 600h94v-64h-94v-116h-66v116h-260v52l210 390h76l-204-378h178v154h66v-154zM962 894l-50-50q-30 36-73 56t-93 20q-94 0-155-62t-61-159 61-159 153-62q84 0 135 47t59 129h-168v66h244l2-18q0-82-33-148t-95-104-144-38q-76 0-142 34t-104 98q-42 68-42 156 0 82 38 148t104 103 148 37q66 0 122-25t94-69z" />
<glyph unicode="&#xe004;" glyph-name="4gplus" d="M94 480h32v-22h-32v-40h-20v40h-74v18l68 128h26l-68-124h46v52h22v-52zM306 580l-18-18q-20 26-52 26t-52-20-20-52 20-53 49-21 45 16 20 42h-54v22h78v-6q0-40-24-68t-64-28-67 26-28 68 27 69 71 27 69-30zM410 492v-74h-24v186h72q30 0 48-15t18-41-18-41-48-15h-48zM410 582v-68h46q44 0 43 34t-43 34h-46zM680 418h-130v186h24v-164h106v-22zM850 490q0-36-22-56t-56-20-56 20-22 56v114h24v-112q0-28 14-41t39-14 40 13 15 42v112h22v-114h2zM1008 568q-24 16-54 16-22 0-35-9t-13-23q0-24 42-30l16-2q60-6 60-50 0-26-21-41t-53-15q-20 0-41 7t-33 17l12 20q10-10 27-16t35-6q22 0 36 9t14 25q0 22-46 28l-18 2q-54 8-54 50 0 26 20 42t52 14q36 2 66-20z" />
<glyph unicode="&#xe005;" glyph-name="activate-service" d="M564 618v102q32 22 48 56t16 72q0 68-46 114t-113 46-114-46-47-114q0-38 18-72t46-56v-212h-96l-98-214 146-278h414l108 480zM468 944q42 0 69-28t27-68q0-10-4-28l-2-8q-10 26-34 41t-55 15-56-15-33-41l-2 8q-6 18-6 28 0 40 28 68t68 28zM686 80h-322l-116 214 68 150h56v-140h64v480q0 8 9 14t23 6 23-6 9-14v-352h64v116l206-90z" />
<glyph unicode="&#xe006;" glyph-name="add-a-second-plan" d="M708 1024q-62 0-112-31t-76-83h-412v-910h698v624q52 26 83 76t31 112q0 88-62 150t-150 62zM746 60h-578v790h330q-4-20-4-38 0-52 24-98t64-74h-322v-62h396v28q26-6 52-6 18 0 38 2v-542zM806 696q-26-22-60-30-22-6-38-6-64 0-108 44t-44 108q0 18 4 38 10 34 32 60 46 54 116 54 62 0 106-44t44-108q2-70-52-116zM260 488h396v-62h-396v62zM260 334h396v-60h-396v60zM740 908h-64v-64h-64v-64h64v-64h64v64h64v64h-64v64z" />
<glyph unicode="&#xe007;" glyph-name="addons-purchases" d="M192 96q0-26 19-45t45-19 45 19 19 45-19 45-45 19-45-19-19-45zM704 96q0-26 19-45t45-19 45 19 19 45-19 45-45 19-45-19-19-45zM800 992q-62 0-113-30t-81-81-30-113q0-56 22-96h-410l-22 128h-166v-64h112l92-480h644l58 314q54 30 86 82t32 115-30 114-81 81-113 30zM796 320h-536l-58 288h442q68-64 156-64 26 0 38 4zM800 608q-68 0-114 46t-46 114 46 114 114 46 114-46 46-114-46-114-114-46zM832 864h-64v-64h-64v-64h64v-64h64v64h64v64h-64v64z" />
<glyph unicode="&#xe008;" glyph-name="address-book" d="M928 672h-64v320h-768v-960h768v320h64v320zM800 96h-640v832h640v-256h-320v-320h320v-256zM864 416h-320v192h320v-192zM608 512q0-20 14-34t34-14 34 14 14 34-14 34-34 14-34-14-14-34z" />
<glyph unicode="&#xe009;" glyph-name="aeroplane" d="M984 862q2 48-28 82l-6 6q-2 4-6 6-34 30-82 28-108-8-274-196-376 88-406 88-22 0-55-14t-57-36q-26-24-30-50-2-18 8-32 20-24 84-62 78-48 232-124-10-24-45-64t-53-48q-8-2-46 12-48 16-74 18-44 2-70-34-38-52-10-98 16-28 68-66 44-32 64-56l26-26q22-18 54-64 28-36 46-52 28-26 58-26t60 22q36 26 34 70-2 26-18 74v0q-14 38-12 44 8 20 48 55t64 45q100-200 150-274 36-52 60-52l8 2q26 4 50 30 22 24 36 56t14 54q0 32-88 408 188 168 196 274zM748 630q-8-6-12-10-12-12-8-28 90-376 92-412 0-14-16-42t-30-38q-44 46-166 292l-4 10q-12 22-36 22-36 0-98-52-58-48-76-82-8-18-4-44 2-16 14-48 14-36 15-52t-12-25-23-9-23 12-35 42q-38 52-62 72l-24 24q-22 26-72 62v0q-32 24-44 36t-12 22 9 24 25 12 54-14q30-12 46-16 26-4 44 6 34 16 82 74 52 64 52 98 0 26-22 38l-10 4q-246 122-292 166 10 14 38 30t42 16q36-2 412-92 16-4 28 8l10 12q152 172 236 178 24 2 40-12l8-8q14-16 12-40-6-84-178-236z" />
<glyph unicode="&#xe00a;" glyph-name="android" d="M692 852l38 90-58 26-36-76q-56 28-124 28-74 0-134-36l-36 84-60-26 42-96q-40-36-62-87t-22-105v-502h128v-96h64v96h160v-96h64v96h128v502q0 60-24 111t-68 87zM720 216h-416v412h416v-412zM308 692q14 70 72 117t132 47 132-47 72-117h-408zM384 754q0-14 10-25t25-11 25 11 10 25-10 24-25 10-25-10-10-24zM560 754q0-14 10-25t25-11 25 11 10 25-10 24-25 10-25-10-10-24zM816 632h64v-320h-64v320zM144 632h64v-320h-64v320z" />
<glyph unicode="&#xe00b;" glyph-name="apple" d="M650 828q56 62 50 144-36 0-75-19t-65-50-38-65q-16-42-10-76 36-6 74 14t64 52zM368 688q22 0 68-20l12-4q44-18 69-18t73 16l24 8q56 18 84 18 42 0 80-22-74-80-74-182v0q2-70 38-130 28-48 74-82-14-28-38-68v0q-28-42-50-64t-42-22-46 14l-12 4q-52 20-96 20-50 0-108-22l-24-8q-18-8-26-8-22 0-48 28-18 16-51 62t-55 110q-28 78-28 152 0 82 32 132 22 38 60 61t84 25v0zM368 752h-4q-58 0-110-32t-84-84q-42-66-42-168 0-82 30-166 26-78 68-135t68-79q40-36 84-36 26 0 66 16 24 10 38 14 24 8 49 8t47-6q14-4 36-14 42-18 70-18 44 0 82 36 26 22 63 76t63 124l4 10q-4 0-20 10-24 12-44 30-28 26-44 58-18 40-20 88 0 54 26 98 18 34 48 58 22 20 28 20-36 54-94 76-40 16-84 16t-120-26q-42-16-57-16t-53 16q-60 26-94 26v0z" />
<glyph unicode="&#xe00c;" glyph-name="arrow-down-right-organic-small2" d="M288 394l44 44 148-144v560h64v-562l148 146 44-44-224-224z" />
<glyph unicode="&#xe00d;" glyph-name="arrow-down" d="M512 382l-214 214 44 46 170-170 170 170 44-46z" />
<glyph unicode="&#xe00e;" glyph-name="arrow-left-organic2" d="M294 544l144 148-44 44-224-224 224-224 44 44-146 148h562v64h-560z" />
<glyph unicode="&#xe00f;" glyph-name="arrow-left" d="M382 512l214 214 46-44-170-170 170-170-46-44z" />
<glyph unicode="&#xe010;" glyph-name="arrow-right-organic" d="M630 736l-44-44 144-148h-560v-64h562l-146-148 44-44 224 224z" />
<glyph unicode="&#xe011;" glyph-name="arrow-right" d="M642 512l-214-214-46 44 170 170-170 170 46 44z" />
<glyph unicode="&#xe012;" glyph-name="arrow-left-organic" d="M294 544l144 148-44 44-224-224 224-224 44 44-146 148h562v64h-560z" />
<glyph unicode="&#xe013;" glyph-name="arrow-up" d="M512 642l214-214-44-46-170 170-170-170-44 46z" />
<glyph unicode="&#xe014;" glyph-name="australia-map-outline" d="M856 224h-138q-12 0-26 12l-128 192h-182l-234-134q-12-8-27-3t-21 23l-70 242v112q0 18 14 26l198 166 34 96q0 8 8 14t18 6h174q12 0 22-10l128-128h34l62 118q10 20 29 20t29-12l208-312q6-12 6-18v-138q0-10-4-12l-102-242q-20-18-32-18zM734 288h100l92 214v122l-168 256-46-90q-12-18-28-18h-70q-14 0-24 8l-128 128h-136l-30-80q0-8-10-12l-192-164v-82l58-198 206 118q6 2 14 2h210q12 0 24-12zM718 150h138l-70-102z" />
<glyph unicode="&#xe015;" glyph-name="backup-storage" d="M794 716q-66 0-122-34-26 66-78 104-58 46-136 46-90 0-154-74-50-64-54-140-46 0-89-16t-71-42q-52-46-52-113t48-113q34-32 80-46h246v64h-234q-76 30-76 92 0 40 32 68 24 22 65 33t83 5l42-2-10 40q-6 30 6 65t36 63q46 52 102 52 64 0 110-46 38-40 50-98l10-58 44 38q52 48 118 48 28 0 58-18t50-52q20-36 20-80t-24-80q-20-32-54-51t-66-19h-236v-64h240q50 0 98 28t78 76q32 50 32 110t-30 112q-28 46-73 74t-89 28zM634 458l-160 156-158-156 46-46 80 80v-300h64v300l82-80z" />
<glyph unicode="&#xe016;" glyph-name="banking-finance" d="M500 734q58 0 100 41t42 98-42 98-100 41-100-41-42-98 42-98 100-41zM500 948q32 0 55-22t23-53-23-53-55-22-55 22-23 53 23 53 55 22zM916 576h-26q-26 70-78 126-8 46-10 94-4 40-6 48-14 36-42 36-16 0-25-11t-13-39q-4-22-16-46-8-14-16-26t-20-26l-8-8q-16-16-26-24-20-14-46-24l-4-2q-12-4-24-7t-24-5h-6q-14-2-26-2-58 0-109 28t-81 78l-16 26-26-16q-70-38-116-96t-66-128h-74v-222h94q36-78 106-134l-20-152 238-32 12 92q48-6 100 0l12-90 238 30-20 152q58 46 92 108h52q40 0 68 28t28 68v80q0 40-28 68t-68 28zM948 400q0-12-9-22t-23-10h-90l-10-18q-32-66-98-114l-14-12 16-124-112-16-12 92-32-4q-72-14-144-2l-32 6-12-92-112 14 18 126-16 12q-78 54-108 136l-8 22h-74v94h62l6 26q10 56 44 106t86 86q40-52 100-81t126-29q14 0 34 2h8q16 2 31 6t31 10l6 4q30 12 58 32 14 10 26 20l4 4q24 24 40 50l4 6q4-32 8-58 72-66 88-156 14-4 28-4h50q14 0 23-9t9-23v-80zM692 598q-22 0-36-14t-14-35 14-35 35-14 36 14 15 35-15 35-35 14z" />
<glyph unicode="&#xe017;" glyph-name="battery-empty" d="M976 672h-128v96h-800v-512h800v96h128v320zM784 320h-672v384h672v-384zM912 416h-64v192h64v-192z" />
<glyph unicode="&#xe018;" glyph-name="battery-full" d="M976 672h-128v96h-800v-512h800v96h128v320zM784 320h-672v384h672v-384zM912 416h-64v192h64v-192zM244 672h-100v-180l140 180h-40zM634 352h118v154zM374 672l-230-298v-22h64l250 320h-84zM550 672l-246-320h80l246 320h-80zM752 672h-28l-248-320h80l196 252v68z" />
<glyph unicode="&#xe019;" glyph-name="bell" d="M930 112q-72 80-111 182t-39 212v204q0 78-35 145t-94 108-131 45h-10q-72 0-133-38t-97-104-36-142v-218q0-110-39-212t-111-182h304q8-44 39-70t74-26 74 26 37 70h308zM222 176q90 154 90 330v218q0 60 27 110t73 80 102 30h6q54-2 99-34t71-85 26-115v-204q0-180 88-330h-582z" />
<glyph unicode="&#xe01a;" glyph-name="bill-settings" d="M398 470l26 38q-44 28-92 32v42h-42v-42q-42-4-69-28t-27-61 28-59q24-18 64-24h4v-86q-48 4-80 32l-26-38q38-34 106-40v-44h38v44q42 6 69 30t27 60q0 72-96 84v86q40-4 70-26zM290 412q-26 6-37 15t-9 25q0 30 46 40v-80zM332 358q48-10 48-34 0-32-48-42v76zM926 682l68 18-78 232-70-20q-18 20-38 28v68h-250v-64l-34-28-58 18-58-182h-378v-736h544v470l54-42 40 52q24-4 48 0l38-52 198 142-38 50 6 23zM510 80h-416v608h350l8-4q4-12 12-34l4-10-34-52 76-56v-452zM866 736l-4-22q-4-32-18-62l-10-18 22-32-92-68-24 32-18-2q-32-6-64 0l-20 2-22-32-92 68 22 32-10 18q-14 30-20 62l-2 18-38 14 34 108 36-16 12 16q16 20 48 38l20 10v42h122v-36l22-16q32-18 48-34l12-14 48 14 36-110zM692 858q-50 0-85-36t-35-86 35-86 86-36 86 36 35 86-35 86-87 36zM692 678q-24 0-40 17t-16 41 16 41 40 17 41-17 17-41-17-41-41-17z" />
<glyph unicode="&#xe01b;" glyph-name="billing" d="M678 992h-534v-960h736v768zM688 896l102-96h-102v96zM816 96h-608v832h416v-192h192v-640zM540 742h-48v-64q-64-8-105-42t-42-89 37-85q34-28 98-36h10v-154q-34 2-70 16t-58 32l-32-44q28-24 72-40t88-18v-68h50v68q66 8 108 40 44 36 44 92t-42 88q-38 28-102 36h-8v154q62-6 116-42l28 48q-64 44-144 48v60zM490 484q-90 14-90 66 2 32 26 52t64 26v-144zM634 348q0-32-25-52t-69-24v148q94-16 94-72z" />
<glyph unicode="&#xe01c;" glyph-name="building" d="M192 832h128v-128h-128v128zM448 832h128v-128h-128v128zM704 832h128v-128h-128v128zM192 576h128v-128h-128v128zM448 576h128v-128h-128v128zM704 576h128v-128h-128v128zM192 320h128v-128h-128v128zM704 320h128v-128h-128v128zM64 960v-896h384v256h128v-256h384v896h-896zM896 128h-256v256h-256v-256h-256v768h768v-768z" />
<glyph unicode="&#xe01d;" glyph-name="bundles" d="M768 734q36 40 36 100 0 64-48 112t-112 48q-42 0-76-18t-56-50q-22 32-56 50t-72 18q-68 0-114-47t-46-113q0-60 36-100h-100v-704h704v704h-96zM480 94h-256v256h256v-256zM480 414h-256v256h256v-256zM480 828v-90h-96q-40 0-68 27t-28 68 28 69 68 28 68-28 28-68v-6zM548 828v6q-4 38 25 67t70 29 69-28 28-68-29-68-67-28h-96v90zM800 94h-256v256h256v-256zM800 414h-256v256h256v-256z" />
<glyph unicode="&#xe01e;" glyph-name="business-builder" d="M186 536v-476h636v900h-252v-212h-192v-212h-192zM378 120h-132v356h132v-356zM570 120h-132v568h132v-568zM762 120h-132v780h132v-780z" />
<glyph unicode="&#xe01f;" glyph-name="business-care" horiz-adv-x="1172" d="M818 508q-10 36-36 64-42 38-98 38-26 0-50-10t-42-28l-8-8-6 8q-20 18-44 28t-50 10-51-10-43-28q-26-28-35-63t0-71 35-62l196-202 196 202q26 26 35 62t1 70zM756 398l-172-176-170 176q-32 30-32 74t30 75 72 31 70-32l30-30 30 30q28 32 71 32t72-31 29-74-30-75zM820 782v8q0 62-31 116t-85 86-118 32-117-32-85-86-32-116v-8h-352v-782h1172v782h-352zM430 790q0 64 46 110t111 46 110-46 45-110v-8h-312v8zM1094 78h-1016v626h1016v-626zM794 584q-48 44-110 44-28 0-54-11t-46-29q-18 18-44 28-56 24-114 0-28-12-48-34-30-28-40-68t0-80 40-70l208-214 208 214q30 28 40 69t0 79v0q-10 42-40 70v2zM744 410l-160-164-158 164q-28 26-27 62t27 62v2q22 24 58 24t58-24l42-46 44 46q22 24 57 24t59-24v-2q24-24 25-61t-25-63z" />
<glyph unicode="&#xe020;" glyph-name="business-portal3" d="M704 732v8q0 78-56 135t-136 57-136-57-56-135v-8h-288v-640h960v640h-288zM384 740q0 52 38 90t90 38 90-38 38-90v-8h-256v8zM928 156h-832v512h832v-512z" />
<glyph unicode="&#xe021;" glyph-name="business-reports" d="M372 590h64v396q-32-6-64-16-114-34-199-119t-119-199q-10-34-14-64h332v2zM372 904v-252h-252q32 88 98 154t154 98zM852 852q-72 72-165 108t-189 32v-466h-466q-4-96 32-189t108-165q92-92 216-124t247 0 216 125 125 216 0 247-124 216zM806 218q-80-80-187-108t-214 0-187 108q-100 100-118 244h462v462q144-18 244-118 80-80 108-187t0-214-108-187z" />
<glyph unicode="&#xe022;" glyph-name="business-sharing" d="M1024 642v192h-192v-64h80l-186-186v90h-210v6q0 64-45 109t-108 45-108-45-45-109v-6h-210v-484h726v252l186-188-80 2v-64l192-2v192h-64v-84l-214 214 214 214v-84h64zM274 680q0 38 26 64t63 26 63-26 26-64v-6h-178v6zM662 254h-598v356h598v-356z" />
<glyph unicode="&#xe023;" glyph-name="business-portal2" d="M704 732v8q0 78-56 135t-136 57-136-57-56-135v-8h-288v-640h960v640h-288zM384 740q0 52 38 90t90 38 90-38 38-90v-8h-256v8zM928 156h-832v512h832v-512z" />
<glyph unicode="&#xe024;" glyph-name="business-think-tank2" d="M320 650h64q0 64 46 112t110 48v64q-60 0-110-30t-80-82-30-112zM512 992q-92 0-169-46t-122-125-45-171q0-84 38-156t106-120v-342h384v346q68 48 106 121t38 153q0 92-45 170t-122 124-169 46zM640 96h-256v156h256v-156zM656 420l-16-8v-96h-256v94l-16 6q-60 38-94 100t-34 136 37 138 99 101 136 37 136-37 99-101 37-136-34-134-94-100z" />
<glyph unicode="&#xe025;" glyph-name="calendar2" d="M768 864v96h-64v-96h-384v96h-64v-96h-224v-800h960v800h-224zM928 128h-832v672h160v-64h64v64h384v-64h64v64h160v-672z" />
<glyph unicode="&#xe026;" glyph-name="camera" d="M992 160h-960v608h308l66 96h208l70-96h308v-608zM96 224h832v480h-276l-70 96h-144l-66-96h-276v-480zM512 320q-68 0-114 46t-46 114 46 114 114 46 114-46 46-114-46-114-114-46zM512 576q-40 0-68-28t-28-68 28-68 68-28 68 28 28 68-28 68-68 28z" />
<glyph unicode="&#xe027;" glyph-name="cart" horiz-adv-x="1096" d="M220 96q0-40 28-68t67-28 67 28 28 67-28 67-67 28-67-28-28-66zM760 96q0-40 28-68t68-28 67 28 27 67-27 67-67 28-68-28-28-66zM1002 278h-798l-108 600h-96v146h220l28-160h850zM330 424h548l50 292h-650z" />
<glyph unicode="&#xe028;" glyph-name="case-studies" d="M960 900q-162 8-302-24-90-22-150-52-58 30-150 52-138 32-300 24l-30-4v-664l10-10q12-12 38-6 148 12 264-16 88-20 152-64l20-14 20 14q58 38 138 58 64 18 138 22 54 2 106-2 40-2 42-6l40-6v694zM92 282v554q136 4 256-24 72-18 128-44v-550q-128 64-310 64-14 2-48 2zM924 280q-82 6-164-2-124-14-220-60v550q48 26 130 46 118 26 254 22v-556z" />
<glyph unicode="&#xe029;" glyph-name="chat-bubble2" d="M896 896v-512h-364l-244-188v188h-160v512h768zM960 960h-896v-640h160v-256l330 256h406v640z" />
<glyph unicode="&#xe02a;" glyph-name="cheap-value" d="M534 740v-52q52-4 116-38l-30-48q-44 28-82 32v-106q118-18 114-100 0-44-32-72t-82-36v-54h-52v54q-36 2-70 15t-58 33l32 48q40-34 96-38v102h-6q-112 18-112 102 0 44 32 73t84 37v48h50zM480 534v96q-26-4-40-18t-14-32q0-30 54-46zM534 470v-96q58 12 58 52 0 28-58 44zM480 204v-172h64v172h-16q-12-2-20-1t-28 1zM544 812v180h-64v-176h28q26 0 36-4zM320 748l-124 126-46-46 126-124q20 24 44 44zM704 276l124-126 46 46-126 124q-20-24-44-44zM816 508v-28h176v64h-180q4-10 4-36zM204 544h-172v-64h172v64zM748 704l126 124-46 46-124-126zM272 316l-122-120 46-46 120 122q-24 20-44 44z" />
<glyph unicode="&#xe02b;" glyph-name="checkout" d="M240 192q0-26 19-45t45-19 45 19 19 45-19 45-45 19-45-19-19-45zM752 192q0-26 19-45t45-19 45 19 19 45-19 45-45 19-45-19-19-45zM896 352h-640l-96 480h-112v64h166l26-128h736zM308 416h536l56 288h-650z" />
<glyph unicode="&#xe02c;" glyph-name="claim-credit" d="M490 420h-6v144q60-4 110-38l28 46q-64 40-138 44v58h-44v-60q-62-8-101-40t-39-86q-4-98 128-114h8v-146q-32 2-66 15t-54 31l-32-44q28-22 70-37t82-17v-64h50v64q62 8 100 38 42 36 42 89t-40 83q-36 26-98 34zM436 428q-84 14-84 64 2 30 25 49t59 23v-136zM484 228v140q88-14 88-68 0-30-24-49t-64-23zM708 1024q-62 0-112-31t-76-83h-412v-910h698v624q52 26 83 76t31 112q0 88-62 150t-150 62zM746 60h-578v790h330q-4-20-4-38 0-90 62-152t152-62q18 2 38 4v-542zM806 696q-26-22-60-30-22-6-38-6-64 0-108 44t-44 108q0 18 4 38 10 34 32 60 46 54 116 54 62 0 106-44t44-108q2-70-52-116zM690 808l-42 42-34-50 82-84 106 150-42 40z" />
<glyph unicode="&#xe02d;" glyph-name="business-think-tank" d="M320 650h64q0 64 46 112t110 48v64q-60 0-110-30t-80-82-30-112zM512 992q-92 0-169-46t-122-125-45-171q0-84 38-156t106-120v-342h384v346q68 48 106 121t38 153q0 92-45 170t-122 124-169 46zM640 96h-256v156h256v-156zM656 420l-16-8v-96h-256v94l-16 6q-60 38-94 100t-34 136 37 138 99 101 136 37 136-37 99-101 37-136-34-134-94-100z" />
<glyph unicode="&#xe02e;" glyph-name="clock" d="M512 992h-32v-492l218-202 44 48-198 178v404q106-8 194-65t139-150 51-201q0-114-56-209t-151-151-209-56-209 56-151 151-56 209q0 130 74 237t194 151v66q-96-30-172-98t-118-161-42-195q0-130 64-241t175-175 241-64 241 64 175 175 64 241-64 241-175 175-241 64z" />
<glyph unicode="&#xe02f;" glyph-name="cloud-data" d="M804 876q-68 0-120-32-26 64-74 104-58 44-134 44-40 0-79-19t-67-55q-52-62-58-140-94 0-154-54-24-24-39-57t-15-59q-32-26-32-60v-400q0-56 74-88 66-28 160-28t158 28q76 32 76 88v300h294q48 0 94 28t75 77 30 109-29 112q-26 46-71 74t-89 28zM266 598q50 0 92-10 34-8 54-20t20-21-20-21-54-20q-42-10-93-10t-93 10q-34 8-55 21t-21 20 21 20 55 21q42 10 94 10zM96 464q64-32 170-32 46 0 91 9t79 27v-56h-4q0-8-20-20t-54-20q-40-10-91-10t-93 10q-36 8-57 20t-21 20v52zM96 330q64-32 170-32t170 32v-48h-4q0-10-20-22t-54-20q-40-10-91-10t-93 10q-36 8-57 20t-21 22v48zM266 96q-50 0-92 10-36 8-57 20t-21 22v50q64-32 170-32t170 32v-50q0-10-21-22t-57-20q-42-10-92-10zM794 512h-294v36q0 54-72 86-66 28-160 28-72 0-130-18 10 20 26 32 20 20 58 30t78 4l42-2-6 40q-4 32 7 67t35 61q46 52 98 52 66 0 110-46 36-40 48-98l10-58 44 38q52 48 116 48 26 0 56-19t50-51q22-36 22-80t-24-80q-20-32-52-51t-62-19z" />
<glyph unicode="&#xe030;" glyph-name="cloud-download" d="M586 328l-80-80v268h-64v-272l-84 84-44-44 160-160 156 160zM986 572q0 58-30 110-28 48-73 76t-89 28q-66 0-122-36-26 66-78 106-58 44-136 44-90 0-154-72-50-64-54-142-46 0-89-15t-71-43q-52-46-52-113t48-113q34-32 80-46h246v64l-234 2q-76 30-76 92 0 40 32 66 24 22 65 33t83 7l42-4-10 42q-6 28 6 64t36 64q46 50 102 50 64 0 110-44 38-40 50-100l10-56 44 38q52 48 118 48 28 0 58-19t50-51q20-36 20-80t-24-82q-20-32-54-51t-66-19h-236v-64h240q50 0 98 28t78 76q32 52 32 112z" />
<glyph unicode="&#xe031;" glyph-name="concierge" d="M544 700v100h64v64h-192v-64h64v-100q-106-8-194-64t-139-148-51-200h832q0 108-51 200t-139 148-194 64zM512 640q84 0 158-38t124-104 64-146h-692q14 80 64 146t124 104 158 38zM32 224h960v-64h-960v64z" />
<glyph unicode="&#xe032;" glyph-name="conferencing" d="M464 828q0-20 14-34t34-14 34 14 14 34-14 34-34 14-34-14-14-34zM544 160q72 6 138 36t120 82q78 78 105 184t0 211-107 183q-58 60-133 90t-155 30-155-30-135-90q-78-78-105-183t0-211 107-184q52-52 118-82t138-36v-48h-304v-64h672v64h-304v48zM268 812q50 48 112 74t132 26 132-26 112-74q66-68 89-156t0-177-89-155q-50-50-112-76t-132-26-132 26-112 76q-66 66-89 155t0 177 89 154v2zM636 442q52 52 52 125t-51 125-124 52-125-52-52-125 51-125 124-52 125 52zM432 646q34 34 80 34t79-33 33-80-33-80-79-33-79 33-33 80 32 79z" />
<glyph unicode="&#xe033;" glyph-name="confirm-tick" d="M512 910q80 0 153-30t129-88q76-78 103-181t0-206-103-179q-56-56-129-86t-153-30-153 31-129 87q-76 78-103 181t0 206 103 181q56 54 129 84t153 30zM512 974q-90 0-176-34t-154-100q-90-90-121-209t0-238 121-209q66-66 152-100t178-34 176 34 154 100q90 90 121 209t0 238-121 209q-68 66-154 100t-176 34zM452 260l-188 188 44 46 136-136 264 376 52-36z" />
<glyph unicode="&#xe034;" glyph-name="convenient-returns" d="M28 604l384-192 190-382 394 964zM182 596l622 250-376-374zM596 184l-122 244 374 374z" />
<glyph unicode="&#xe035;" glyph-name="copyright" d="M512 910q80 0 153-30t129-88q76-78 103-181t0-206-103-179q-56-56-129-86t-153-30-153 31-129 87q-76 78-103 181t0 206 103 181q56 54 129 84t153 30zM512 974q-90 0-176-34t-154-100q-90-90-121-209t0-238 121-209q66-66 152-100t178-34 176 34 154 100q90 90 121 209t0 238-121 209q-68 66-154 100t-176 34zM690 640l-56-36q-20 26-50 42t-66 16q-64 0-105-42t-41-108 41-108 105-42q74 0 116 58l54-38q-26-40-71-62t-99-22q-94 0-155 61t-61 154 61 154 155 61q56-2 102-25t70-63z" />
<glyph unicode="&#xe036;" glyph-name="coverage-maps2" d="M512 34l-218 352q-24 40-44 86-18 42-26 74-16 72-16 114 0 88 40 164t109 120 151 46h4q84-2 153-46t110-119 41-165q0-50-16-114-8-32-26-72-20-48-44-88zM512 926h-4q-64-2-118-38t-86-96-32-132q0-48 12-98 24-80 64-144l164-266 164 266q22 36 40 78 14 38 20 66 12 50 12 98 2 72-29 132t-86 96-121 38zM512 542q-60 0-102 42t-42 102 42 102 102 42 102-42 42-102-42-102-102-42zM512 766q-34 0-57-23t-23-57 23-57 57-23 57 23 23 57-23 57-57 23z" />
<glyph unicode="&#xe037;" glyph-name="credit-card" d="M32 830v-636h960v636h-960zM928 766v-92h-832v92h832zM96 258v352h832v-352h-832z" />
<glyph unicode="&#xe038;" glyph-name="credit-transfer" d="M868 716l-44-44 64-64h-138v192h-736v-576h736v320h138l-64-64 44-44 142 140zM686 736v-128h-608v128h608zM78 288v256h608v-256h-608z" />
<glyph unicode="&#xe039;" glyph-name="cross" d="M860 814l-44 46-304-304-304 304-44-46 304-304-304-304 44-44 304 304 304-304 44 44-304 304z" />
<glyph unicode="&#xe03a;" glyph-name="customer-support" d="M896 610q-12 0-32-6v24q0 98-47 180t-128 131-177 49-177-49-128-132-47-181v-22q-20 6-32 6-38 0-67-29t-29-67v-154q0-38 29-67t67-29q26 0 48 16 30-84 98-142t158-72q20-30 60-30 32 0 55 23t23 54-23 54-55 23q-26 0-46-15t-26-39q-86 20-141 88t-55 158v244q0 80 39 148t105 109 144 41 144-40 105-107 39-149v-268q0-38 29-67t67-29 67 29 29 67v154q0 38-29 67t-67 29zM160 396v-36q0-12-10-22t-22-10-22 10-10 22v154q0 12 10 22t22 10 22-10 10-22v-118zM928 360q0-12-10-22t-22-10-22 10-10 22v154q0 12 10 22t22 10 22-10 10-22v-154z" />
<glyph unicode="&#xe03b;" glyph-name="dashboard" d="M512 752q-122 0-225-60t-163-163-60-225v-32h224v64h-160q10 98 63 179t137 127 184 46 184-46 137-127 63-179h-406l128 132v-46h64v150h-148v-64h36l-154-156v-80h544v32q0 122-60 225t-163 163-225 60z" />
<glyph unicode="&#xe03c;" glyph-name="delivery" d="M992 532l-176 244h-80v64h-704v-576h106q10-34 37-57t65-23 65 23 37 57h262q10-34 38-57t64-23 65 23 39 57h182v268zM240 248q-16 0-29 12t-13 29 13 30 29 13 29-13 13-30-13-29-29-12zM708 248q-18 0-30 12t-12 29 12 30 29 13 29-13 12-30-12-29-28-12zM928 328h-122q-12 30-39 49t-60 19-60-19-39-49h-272q-12 30-39 49t-60 19-58-19-39-49h-44v448h576v-256h64v192h48l144-198v-186z" />
<glyph unicode="&#xe03d;" glyph-name="desktop-computer" d="M960 272v608h-896v-608h412v-64h-220v-64h512v64h-228v64h420zM128 816h768v-480h-768v480z" />
<glyph unicode="&#xe03e;" glyph-name="dollar-magnify2" d="M474 854v-64q78-4 144-48l-28-44q-54 36-116 42v-154h6q66-8 102-36 42-32 42-88t-44-92q-40-32-106-40v-68h-52v68q-42 2-86 18t-74 40l32 44q24-18 59-32t69-16v154h-8q-66 8-100 36-38 30-37 85t42 89 107 42v64h48zM422 588v144q-38-4-62-25t-28-51q6-50 90-68zM474 528v-148q42 6 67 26t25 52q6 54-92 70zM996 74l-218 218q70 82 93 187t-7 209-108 182q-62 62-140 94t-161 32-161-32-140-94q-82-82-111-191t0-219 111-192q62-60 140-92t160-32q76 0 148 26t130 76l218-218zM198 314q-68 68-93 162t0 187 93 163q52 50 118 78t138 28 138-28 118-78q70-70 94-163t0-187-94-162q-50-50-117-78t-138-28-137 27-120 79z" />
<glyph unicode="&#xe03f;" glyph-name="dollar" d="M554 928v-90q110-6 202-66l-40-68q-74 52-162 58v-214h10q90-10 142-50 58-44 58-122t-60-128q-58-48-150-58v-94h-70v94q-62 4-123 26t-101 54l44 64q32-26 80-44 52-20 100-24v214h-14q-90 12-138 50-54 44-52 121t62 127q54 46 146 56v90zM484 556v202q-56-6-89-35t-37-73q0-66 124-94h2zM554 472v-206q60 8 95 35t35 73q0 78-130 98z" />
<glyph unicode="&#xe040;" glyph-name="arrow-down-right-organic-small" d="M288 394l44 44 148-144v560h64v-562l148 146 44-44-224-224z" />
<glyph unicode="&#xe041;" glyph-name="download-pdf" d="M528 342v266h-64v-262l-70 70-46-44 148-152 150 152-44 44zM678 992h-534v-960h736v768zM688 896l102-96h-102v96zM208 96v832h416v-192h192v-640h-608z" />
<glyph unicode="&#xe042;" glyph-name="download" d="M992 144h-960v288h64v-224h832v224h64v-288zM646 614l-102-118v384h-64v-384l-102 118-52-44 186-208 186 208z" />
<glyph unicode="&#xe043;" glyph-name="edit" d="M768 900l134-134-672-668h-134v128zM768 990l-736-738v-218h228l732 732z" />
<glyph unicode="&#xe044;" glyph-name="education" d="M0 0h480v480h-480v-480zM64 416h352v-352h-352v352zM752 1024h-480v-480h480v480zM688 608h-352v352h352v-352zM544 480v-480h480v480h-480zM960 64h-352v352h352v-352zM456 700h116l22-62h74l-112 292h-84l-110-292h72zM514 860l36-98h-72zM322 244q18 8 29 24t11 38q0 40-28 61t-84 21h-124v-292h132q56 0 83 22t27 62q0 22-13 39t-33 25zM196 330h54q40 0 40-29t-40-29h-54v58zM254 154h-58v60h58q44 0 44-30t-44-30zM798 90q42 0 74 17t52 49l-56 40q-26-38-70-38-34 0-57 22t-23 61 22 62 58 23q44 0 68-38l62 34q-18 34-53 52t-77 18q-68 2-111-41t-43-109 43-109 111-43z" />
<glyph unicode="&#xe045;" glyph-name="eligible" d="M708 1024q-62 0-112-31t-76-83h-412v-910h698v624q52 26 83 76t31 112q0 88-62 150t-150 62zM746 60h-578v790h330q-4-20-4-38 0-52 24-98t64-74h-322v-62h396v28q26-6 52-6 18 0 38 2v-542zM806 696q-26-22-60-30-22-6-38-6-64 0-108 44t-44 108q0 18 4 38 10 34 32 60 46 54 116 54 62 0 106-44t44-108q2-70-52-116zM690 808l-42 42-34-50 82-84 106 150-42 40zM260 488h396v-62h-396v62zM260 334h396v-60h-396v60z" />
<glyph unicode="&#xe046;" glyph-name="email2" d="M32 864v-704h960v704h-960zM858 800l-350-276-344 276h694zM96 224v550l412-330 420 330v-550h-832z" />
<glyph unicode="&#xe047;" glyph-name="enterprise-govt" d="M896 144v380h-176l-176 196v96h128v128h-192v-224l-180-196h-172v-380h-64v-64h896v64h-64zM832 144h-96v316h96v-316zM672 460v-316h-320v316h320zM512 660l122-136h-246zM192 460h96v-316h-96v316z" />
<glyph unicode="&#xe048;" glyph-name="equals" d="M114 688h796v-64h-796v64zM114 400h796v-64h-796v64z" />
<glyph unicode="&#xe049;" glyph-name="error-alert" d="M512 0q138 0 256 69t187 187 69 256-69 256-187 187-256 69-256-69-187-187-69-256 69-256 187-187 256-69zM556 736l-12-308h-64l-12 308h88zM512 384q24 0 41-17t17-41-17-41-41-17-41 17-17 39 18 41 40 19z" />
<glyph unicode="&#xe04a;" glyph-name="error" d="M512 924q114 0 209-55t151-150 56-207-56-207-151-150-209-55-209 55-151 150-56 207 56 207 151 150 209 55zM512 988q-130 0-240-64t-175-173-65-239 65-239 175-173 240-64 240 64 175 173 65 239-65 239-175 173-240 64v0zM462 290q0 20 15 34t36 14 35-14 14-35-14-36-34-15-36 15-16 37zM476 786h70v-388h-70v388z" />
<glyph unicode="&#xe04b;" glyph-name="expert-advice" d="M962 706q-162 6-300-26-84-18-148-48-64 30-150 48-138 32-298 26h-32v-614l38 6q76 8 158 2 160-10 264-76l16-10 16 10q104 66 264 76 82 6 160-2l40-6v614h-28zM98 162v480q136 2 252-24 82-18 132-44v-474q-126 62-310 62-44 4-74 0zM930 162q-82 6-166-2-124-12-218-56v474q164 70 384 66v-482zM252 770h140q38 0 65 27t27 65v10q0 28-12 44 4 14 16 22t26 8 25-9 17-23q-10-20-10-42v-10q0-38 27-65t65-27h142q38 0 65 27t27 65v10q-2 40-28 66t-64 26h-142q-12 0-32-6-36 52-92 52-28 0-52-14t-38-38q-20 6-32 6h-140q-40 0-67-27t-27-65v-10q0-38 27-65t67-27zM780 900q12 0 20-8t8-20v-10q0-12-8-20t-20-8h-142q-12 0-20 8t-8 20v10q0 12 8 20t20 8h142zM222 872q0 12 9 20t21 8h140q12 0 20-8t8-20v-10q0-12-8-20t-20-8h-140q-12 0-21 8t-9 20v10z" />
<glyph unicode="&#xe04c;" glyph-name="extras" d="M512 988q-130 0-240-64t-175-173-65-239 65-239 175-173 240-64 240 64 175 173 65 239-65 239-175 173-240 64zM512 100q-114 0-209 55t-151 150-56 207 56 207 151 150 209 55 209-55 151-150 56-207-56-207-151-150-209-55zM544 544v288h-64v-288h-288v-64h288v-288h64v288h288v64h-288z" />
<glyph unicode="&#xe04d;" glyph-name="facebook" d="M32 992v-960h960v960h-960zM928 96h-294v336h156v58h-156v66q0 88 74 88 40 0 80-24l22 52q-52 28-110 28-66 0-100-40-30-38-30-104v-66h-90v-58h90v-336h-474v832h832v-832z" />
<glyph unicode="&#xe04e;" glyph-name="family-sharing" d="M992 642v192h-192v-64h80l-258-258 258-258h-80v-64h192v192h-64v-84l-214 214 214 214v-84h64zM368 432q94 0 167-54t97-138h-528q24 84 97 138t167 54zM368 496q-92 0-169-43t-122-117-45-160h672q0 86-45 160t-122 117-169 43v0zM384 528q-66 0-113 47t-47 113 47 113 113 47 113-47 47-113-47-113-113-47zM384 784q-40 0-68-28t-28-68 28-68 68-28 68 28 28 68-28 68-68 28z" />
<glyph unicode="&#xe04f;" glyph-name="faq2" d="M512 924q114 0 209-55t151-150 56-207-56-207-151-150-209-55-209 55-151 150-56 207 56 207 151 150 209 55zM512 988q-130 0-240-64t-175-173-65-239 65-239 175-173 240-64 240 64 175 173 65 239-65 239-175 173-240 64v0zM448 404v128h28q70 0 107 27t37 74-38 72-106 25q-12 0-32-2l-24-2-8 68q40 6 68 6 98 0 156-44t58-120q0-68-48-112t-138-54l-2-66h-58zM532 268q0-20-17-37t-38-17-38 17-17 38 17 38 38 17 38-17 17-39z" />
<glyph unicode="&#xe050;" glyph-name="fibre-connectivity" d="M320 512h64v-480h-64v480zM480 512h64v-480h-64v480zM640 512h64v-480h-64v480zM672 576q-26 0-45 19t-19 45 19 45 45 19 45-19 19-45-19-45-45-19zM592 720q-26 0-45 19t-19 45 19 45 45 19 45-19 19-45-19-45-45-19zM512 576q-26 0-45 19t-19 45 19 45 45 19 45-19 19-45-19-45-45-19zM512 864q-26 0-45 19t-19 45 19 45 45 19 45-19 19-45-19-45-45-19zM352 576q-26 0-45 19t-19 45 19 45 45 19 45-19 19-45-19-45-45-19zM432 720q-26 0-45 19t-19 45 19 45 45 19 45-19 19-45-19-45-45-19z" />
<glyph unicode="&#xe051;" glyph-name="filtering" d="M512 1024q0-50-96-86-74-28-196-44-96-14-166-14 14-116 42-224 24-96 60-186 34-80 76-152 36-64 78-120 36-48 76-90 32-34 64-62 24-20 46-34l16-12 16 12q22 14 46 34 32 28 64 62 40 42 76 90 42 56 78 120 42 72 76 152 36 90 60 186 28 108 42 224-72 0-166 12-122 16-196 44-96 38-96 88zM124 820q250 16 356 76v-790q-110 106-190 240-124 210-166 474zM544 106v786q70-30 144-48 106-22 208-28-40-260-162-470-80-134-190-240z" />
<glyph unicode="&#xe052;" glyph-name="fixed-line" d="M286 32q-62 0-118 22-40 16-70 42-24 20-28 28-32 36-37 84t21 92q22 38 78 84 28 22 86 50 36 14 76 8t72-30l2-4q12-12 30-20 22-12 38-8 42 8 114 76l20 20q34 36 52 63t24 53q4 16-6 38-8 14-22 28l-4 4q-26 30-32 70t10 76q20 48 48 84 32 44 86 80 42 26 91 20t85-40h2q32-30 54-72 44-84 32-184-16-112-88-228-50-78-134-168l-42-44q-88-86-168-138-114-72-228-88l-46 2h2zM272 380q-8 0-24-4l-8-2q-42-18-70-40-48-36-62-66-14-24-11-53t21-49q4-8 26-24 30-24 68-34 50-16 108-10 88 12 175 61t187 145l42 40q96 100 144 187t60 175q8 58-10 108-12 38-34 68-18 22-22 22-22 22-50 25t-54-11q-40-24-66-64-28-32-40-70-8-22-4-45t18-39q22-22 34-46 24-44 14-82-8-32-29-66t-65-78l-18-20q-44-42-78-64t-66-28q-40-10-82 12-30 16-46 36-38 16-58 16z" />
<glyph unicode="&#xe053;" glyph-name="future-bus-reports" d="M992 672v192h-192v-64h80l-212-212-64 64-256-256-64 64-188-188v720h-64v-960h956v64h-892v86l188 190 64-64 256 256 64-64 260 258v-86h64z" />
<glyph unicode="&#xe054;" glyph-name="games" d="M528 928q142 0 256-90l-326-326 326-326q-114-90-256-90-114 0-209 56t-151 151-56 209 56 209 151 151 209 56zM528 992q-130 0-241-64t-175-175-64-241 64-241 175-175 241-64q102 0 192 40t156 110l-328 330 328 330q-66 70-156 110t-192 40v0zM848 512q0-26 19-45t45-19 45 19 19 45-19 45-45 19-45-19-19-45z" />
<glyph unicode="&#xe055;" glyph-name="global-international" d="M986 624q-26 74-176 74-46 76-125 121t-174 45-175-47-128-128-48-177v-12q-66-44-98-88-38-48-26-88 10-38 55-58t117-20q46 0 72 4 46-42 107-66t125-24q84 0 158 36t123 100 65 146q76 48 109 95t19 87zM100 340q-2 12 16 35t58 53q14-68 50-118-58-2-92 8-30 8-32 22zM512 224q-106 0-187 68t-97 172q68 38 164 76l-24 62q-48-20-144-64 8 72 48 132t103 95 137 35q68 0 127-28t97-78q-82-10-156-28l32 64-58 28-76-156 156-84 30 58-56 32q78 20 168 26 24-56 24-118 0-82-38-148t-104-105-146-39zM864 524q0 48-22 110 78-6 84-30 2-8-10-28-16-26-52-52z" />
<glyph unicode="&#xe056;" glyph-name="googleplus" d="M314 480h238q-12-82-75-137t-147-55q-60 0-112 30t-82 82-30 112 30 112 82 82 112 30q86 0 152-68l44 46q-84 86-198 86-78 0-145-39t-106-105-39-144 38-144 103-105 143-39 142 39 101 105 37 144v32h-288v-64zM986 544h-128v128h-64v-128h-128v-64h128v-128h64v128h128v64z" />
<glyph unicode="&#xe057;" glyph-name="handshake" d="M840 448l24 26q16 14 24 34l6-6 128 128-326 326-128-128 6-6q-20-8-36-22l-24-26-30 28q-14 16-34 24l6 6-128 126-326-324 128-128 6 6q8-20 24-36l28-28-34-34q-24-24-24-57t24-55l26-26q18-18 46-22 4-28 22-46l26-26q18-18 46-22 2-28 22-46l26-26q22-24 55-24t57 24l34 34 34-34q24-24 57-24t57 24l26 26q18 18 22 46 26 4 44 22l26 26q20 18 24 44 26 4 44 24l26 24q24 24 24 57t-24 57zM696 866l234-236-36-38-236 236zM584 754q12 12 29 12t29-12l178-178q12-12 12-29t-12-29l-26-24-144 146q-14-4-32 6l-8 4q-26 14-44 16-32 4-60-24l-50-50q-4-4-9-4t-8 4-3 9 4 7zM328 868l38-36-236-236-36 38zM194 358q0 6 6 12l56 56q4 4 11 4t11-4l26-26q6-4 6-11t-6-11l-56-58q-4-4-11-4t-13 4l-24 26q-6 6-6 12zM288 264q0 6 4 12l100 98q4 4 11 4t11-4l26-26q4-4 4-11t-4-11l-98-98q-6-6-12-6t-12 6l-24 26q-6 4-6 10zM434 134q-4-4-11-4t-11 4l-26 26q-4 4-4 11t4 11l78 78q4 4 11 4t11-4l26-26q4-4 4-11t-4-11zM642 160l-26-26q-4-4-11-4t-11 4l-36 34q16 16 21 37t-1 41l64-64q4-4 4-11t-4-11zM828 346l-26-26q-4-4-11-4t-11 4l-128 128-44-44 126-128q6-6 6-12t-6-10l-24-26q-6-6-13-6t-11 6l-128 128-38-40-14 6q4 20-2 39t-20 33l-26 26q-18 20-46 23t-52-11q-4 8-10 14l-26 26q-24 24-56 22v2q-16 0-30-6l-34 32q-12 12-12 29t12 29l178 178q12 12 29 12t29-12l28-30-74-74q-22-22-22-53t22-54 53-23 55 24l48 48q8 8 11 7t17-9q24-14 44-18l206-208q6-4 6-10t-6-12z" />
<glyph unicode="&#xe058;" glyph-name="happy-face" d="M512 116q-130 0-241 64t-175 174-64 242h64q0-114 56-210t151-151 209-55 209 55 151 151 56 210h64q0-132-64-242t-175-174-241-64zM224 828q0-32 23-56t57-24 57 24 23 57-23 56-57 23-57-23-23-57zM672 828q0-32 23-56t57-24 57 24 23 57-23 56-57 23-57-23-23-57z" />
<glyph unicode="&#xe059;" glyph-name="hash" d="M910 624v64h-222v222h-64v-222h-224v222h-64v-222h-222v-64h222v-224h-222v-64h222v-222h64v222h224v-222h64v222h222v64h-222v224h222zM624 400h-224v224h224v-224z" />
<glyph unicode="&#xe05a;" glyph-name="headphones" d="M896 482q-12 0-32-6v54q0 98-47 180t-128 130-177 48-177-49-128-132-47-181v-50q-20 6-32 6-38 0-67-29t-29-67v-154q0-38 29-67t67-29 67 29 29 67v294q0 80 39 149t105 109 144 40 144-39 105-107 39-148v-298q0-38 29-67t67-29 67 29 29 67v154q0 38-29 67t-67 29zM160 232q0-12-10-22t-22-10-22 10-10 22v154q0 12 10 22t22 10 22-10 10-22v-154zM928 232q0-12-10-22t-22-10-22 10-10 22v154q0 12 10 22t22 10 22-10 10-22v-154z" />
<glyph unicode="&#xe05b;" glyph-name="healthcare" d="M352 688q22 0 68-18l12-6q44-16 69-16t73 16l24 8q58 16 84 16 42 0 80-22 58-42 78-120 16-68 0-150-12-72-40-124-14-28-38-66v0q-28-44-50-65t-42-21-46 12l-10 4q-54 22-98 22-50 0-108-22l-24-10q-16-6-26-6-20 0-48 26-18 18-50 64t-56 108q-28 80-28 154 0 80 32 130 22 38 60 61t84 25v0zM854 660q-34 54-94 78-40 14-83 14t-121-26q-42-14-57-14t-53 16q-60 24-94 24v0h-2q-60 0-112-31t-84-83q-42-66-42-170 0-80 30-164 26-78 68-135t68-81q42-36 84-36 28 0 66 18 24 10 38 14 24 6 49 6t47-6q14-4 36-14 42-18 72-18 42 0 80 36 26 24 63 78t63 122l4 10q30 82 32 160 2 118-58 202zM542 762q6 36-10 76-14 34-39 65t-65 51-76 20q-4-84 52-144 26-34 63-53t75-15z" />
<glyph unicode="&#xe05c;" glyph-name="help-support" d="M726 642l46 194v8q0 16-12 48-18 50-56 76-52 34-124 10l-24-10v-22q-2-54-6-90l-2-22q0-6-12-40-14-44-36-84-30-54-66-88-46-42-102-52v42h-288v-544h288v64h80l64-96h392l112 510zM268 132h-160v416h160v-416zM816 100h-308l-64 96h-112v312q132 12 216 156 42 72 62 156l2 4q6 36 8 98 28 6 48-6 28-16 40-70l-58-240 252-96z" />
<glyph unicode="&#xe05d;" glyph-name="home-wireless-broadband" d="M512 998l-296-256v92l-64-56v-90l-120-104v-558h960v556zM928 90h-832v460l416 362 416-362v-460zM160 510v-64q78 0 145-40t107-107 40-145h64q0 96-48 178t-130 130-178 48zM160 362v-64q60 0 102-42t42-102h64q0 86-61 147t-147 61zM160 186q0-14 9-23t23-9 23 9 9 23-9 23-23 9-23-9-9-23z" />
<glyph unicode="&#xe05e;" glyph-name="home" d="M512 998l-296-256v90l-64-54v-92l-120-104v-556h400v396h160v-396h400v556zM928 90h-272v396h-288v-396h-272v460l416 362 416-362v-460z" />
<glyph unicode="&#xe05f;" glyph-name="hosting" d="M896 288v192h-352v128h256v384h-576v-384h256v-128h-352v-192h-96v-256h256v256h-96v128h288v-128h-96v-256h256v256h-96v128h288v-128h-96v-256h256v256h-96zM288 928h448v-256h-448v256zM224 96h-128v128h128v-128zM576 96h-128v128h128v-128zM928 96h-128v128h128v-128z" />
<glyph unicode="&#xe060;" glyph-name="hourglass" d="M628 556l6 6q82 74 118 120 58 80 58 170v76h70v64h-736v-64h74v-76q0-90 60-172 36-48 122-122v-2q4-6 16-16l6-6q-8-14-22-22l-6-6q-84-72-118-120-58-80-58-168v-122h-74v-64h736v64h-70v122q0 88-62 170-34 48-120 124v0l-16 16-8 6q10 14 24 22zM282 96v100h464v-100h-464zM742 260h-458q12 58 58 114 32 38 100 96l8 8q30 24 42 38l24 12 18-20 52-44q66-54 98-92 46-54 58-112zM582 604q-2-2-8-6-30-24-42-38l-20-20-20 20-50 44q-78 66-110 108-50 66-50 140v76h460v-76q0-72-50-138-30-38-110-110z" />
<glyph unicode="&#xe061;" glyph-name="house-my-medium-team" d="M730 896h-446l-252-256v-512h960v512zM864 676h-308l-160 156h308zM928 192h-832v422l212 214 224-216h396v-420z" />
<glyph unicode="&#xe062;" glyph-name="inbound" d="M412 544l96 96-44 44-172-172 172-172 44 44-96 96h532v64h-532zM688 96h-544v832h544v-320h64v384h-672v-960h672v384h-64v-320z" />
<glyph unicode="&#xe063;" glyph-name="indent-arrow" d="M736 630l-44-44-148 144v-560h-64v562l-148-146-44 44 224 224z" />
<glyph unicode="&#xe064;" glyph-name="industry-insights" d="M492 756q0-22-14-35t-36-13-35 14-13 34 14 35 34 15 35-15 15-35zM480 324h-70v322h70v-322zM996 74l-218 218q70 82 93 187t-7 209-108 182q-62 62-140 94t-161 32-162-32-139-94q-82-82-111-191t0-219 111-192q60-60 139-92t161-32q76 0 148 26t130 76l218-218zM198 314q-68 68-93 162t0 187 93 163q50 50 117 78t139 28 138-28 118-78q70-70 94-163t0-187-94-162q-50-50-117-78t-138-28-137 27-120 79z" />
<glyph unicode="&#xe065;" glyph-name="infinity" d="M886 688q-50 26-104 22t-100-38l-170-118-170 122q-46 30-100 34t-103-21-78-72-29-104 28-104 78-73q40-22 90-22 60 0 114 34l170 122 170-122q48-34 114-34 50 0 90 22 50 26 78 73t28 103-29 104-77 72zM308 406q-32-22-68-24t-71 15-54 47-19 67 19 70 51 49q38 16 64 16 42 0 78-26l150-108zM858 396q-34-16-70-14t-68 24l-150 110 150 108q32 22 68 24t69-15 52-48 19-70-19-70-51-49z" />
<glyph unicode="&#xe066;" glyph-name="info" d="M566 722q0-24-15-39t-39-15-39 15-15 39 15 39 38 15 39-15 16-39zM550 248h-76v352h76v-352zM512 910q80 0 153-30t129-88q76-78 103-181t0-206-103-179q-56-56-129-86t-153-30-153 31-129 87q-76 78-103 181t0 206 103 181q56 54 129 84t153 30zM512 974q-90 0-176-34t-154-100q-90-90-121-209t0-238 121-209q66-66 152-100t178-34 176 34 154 100q90 90 121 209t0 238-121 209q-68 66-154 100t-176 34v0z" />
<glyph unicode="&#xe067;" glyph-name="instagram" d="M32 992v-960h960v960h-960zM928 928v-256h-832v256h832zM96 96v512h832v-512h-832zM512 544q-80 0-136-56t-56-136 56-136 136-56 136 56 56 136-56 136-136 56zM512 224q-52 0-90 38t-38 90 38 90 90 38 90-38 38-90-38-90-90-38zM736 800q0-26 19-45t45-19 45 19 19 45-19 45-45 19-45-19-19-45z" />
<glyph unicode="&#xe068;" glyph-name="calendar" d="M768 864v96h-64v-96h-384v96h-64v-96h-224v-800h960v800h-224zM928 128h-832v672h160v-64h64v64h384v-64h64v64h160v-672z" />
<glyph unicode="&#xe069;" glyph-name="international-minutes2" d="M514 992h-32v-492l218-202 44 48-198 178v404q106-8 194-65t139-150 51-201q0-114-56-209t-152-151-208-56q-138 0-247 81t-151 211l-12 38-6 42q-10 104 32 204t124 166l-12-112 64-6 26 212-216 24-6-64 96-12q-82-70-127-166t-45-202v0q0-36 2-54v-4q2-6 4-20t3-20 5-16l2-8q2-2 3-10t3-12q16-52 38-92v0q64-110 175-177t242-67 241 64 174 175 65 241-63 240-174 175-240 65z" />
<glyph unicode="&#xe06a;" glyph-name="internet-data" d="M292 772q-102-28-176-102t-102-175-2-203q36-132 142-212t240-80q56 0 102 12 102 28 175 102t102 175 0 204-104 176-175 101-202 2zM708 476v0q6-28-22-66t-84-70q-6 52-22 104-24 88-62 160t-82 116q98-18 173-83t99-161zM476 76q-28-6-66 22t-70 84q28 4 84 18l20 4q36 8 100 32-2-66-20-109t-48-51zM426 266q-56-18-122-22-20 42-42 114-22 90-22 170-2 76 17 125t51 57h12q30 0 69-35t73-97q36-68 60-152 16-56 22-122l-34-12q-56-20-84-26zM192 650q-18-62-14-141t26-169q14-46 36-104-66 4-110 22t-54 46q-26 100 6 194t110 152zM132 192q58-16 118-16h16q44-76 80-108-62 8-118 41t-96 83zM592 134q16 68 12 134 68 40 110 80-8-64-40-119t-82-95zM640 1024v-64q86 0 160-43t117-117 43-160h64q0 104-52 192t-140 140-192 52zM640 864v-64q66 0 113-47t47-113h64q0 62-30 113t-81 81-113 30z" />
<glyph unicode="&#xe06b;" glyph-name="internet" d="M854 848q-66 70-155 107t-187 37-187-37-155-107v0q-68-70-103-156t-35-180 35-180 103-156v0q66-70 155-107t187-37 187 37 156 107 102 156 35 180-35 180-103 156zM928 544h-196q-4 104-40 200t-100 178q126-24 220-118 50-52 79-119t37-141zM100 544q4 72 34 139t80 121v0q94 94 222 118-66-82-103-179t-41-199h-192zM292 480q4-104 40-200t100-178q-126 24-220 118v0q-106 112-116 260h196zM356 480h310q-6-104-46-198t-112-170q-66 78-106 172t-46 196zM356 544q4 104 44 198t112 170q70-76 110-170t46-198h-312zM810 220q-94-94-222-118 132 166 142 378h198q-8-74-37-141t-81-119z" />
<glyph unicode="&#xe06c;" glyph-name="ipphone" d="M286 32q-62 0-118 22-40 16-70 42-24 20-28 28-32 36-37 84t21 92q22 38 78 84 28 22 86 50 36 14 76 8t72-30l2-4q12-12 30-20 22-12 38-8 42 8 114 76l20 20q34 36 52 63t24 53q4 16-6 38-8 14-22 28l-4 4q-26 30-32 70t10 76q20 48 48 84 32 44 86 80 42 26 91 20t85-40h2q32-30 54-72 44-84 32-184-16-112-88-228-50-78-134-168l-42-44q-88-86-168-138-114-72-228-88h-44v2zM272 380q-8 0-24-4l-8-2q-42-18-70-40-48-36-62-66-14-24-11-53t21-49q4-8 26-24 30-24 68-34 50-16 108-10 88 12 175 61t187 145l42 40q96 100 144 187t60 175q8 58-10 108-12 38-34 68-18 22-22 22-22 22-50 25t-54-11q-40-24-66-64-28-32-40-70-8-22-4-45t18-39q22-22 34-46 24-44 14-82-8-32-29-66t-65-78l-18-20q-44-42-78-64t-66-28q-40-10-82 12-30 16-46 36-38 16-58 16zM488 910v-64q-80 0-147-39t-106-106-39-147h-64q0 96 48 178t130 130 178 48zM488 764v-64q-60 0-102-42t-42-102h-64q0 86 60 147t148 61z" />
<glyph unicode="&#xe06d;" glyph-name="laptop" d="M64 240h896v-64h-896v64zM832 784v-416h-640v416h640zM896 848h-768v-544h768v544z" />
<glyph unicode="&#xe06e;" glyph-name="latest-tech" d="M948 980q-28 0-80-12-92-22-186-76-130-74-246-196h-118l-274-272h198l182-182v-198l272 274v118q122 114 196 244 54 94 76 188 12 52 12 80v32h-32zM344 632h38q-58-68-102-144h-84zM632 344l-144-148v80q98 64 144 104v-36zM850 738q-54-100-140-194-114-124-276-226l-112 118q102 164 224 278 94 86 194 138 90 48 174 62-24-96-64-176z" />
<glyph unicode="&#xe06f;" glyph-name="link-service" d="M896 380v400q0 86-61 147t-147 61q-54 0-102-29t-77-77-29-102v-536q0-60-42-102t-101-42-102 44-43 100v424h96v320h-256v-320h96v-424q0-54 29-102t77-77 102-29q86 0 147 61t61 147v536q0 56 43 100t102 44 101-42 42-102v-400h-96v-320h256v320h-96zM96 924h128v-192h-128v192zM928 124h-128v192h128v-192z" />
<glyph unicode="&#xe070;" glyph-name="linkedin" d="M32 992v-960h960v960h-960zM400 96v220q0 56 35 89t87 33 82-31 30-87v-224h-234zM928 96h-234v244q0 70-45 113t-121 39q-88 0-132-64v58h-60v-390h-112v390h-64v-390h-64v832h832v-832zM192 582q20 0 32 13t12 32-12 32-32 13-32-13-12-32 12-32 32-13z" />
<glyph unicode="&#xe071;" glyph-name="loading" d="M544 812v180h-64v-176h28q24 0 36-4zM480 202v-170h64v172l-36-2h-28zM708 272l120-122 46 46-126 124q-12-20-40-48zM320 748l-124 126-46-46 122-120q28 28 48 40zM816 508v-28h176v64h-180q4-12 4-36zM204 544h-172v-64h170v28q0 24 2 36zM748 700l128 128-44 46-128-128q22-18 44-46zM268 316l-120-120 44-46 122 122q-22 18-46 44z" />
<glyph unicode="&#xe072;" glyph-name="log-in3" d="M512 434q98 0 182-41t140-113 72-160h-788q16 88 72 160t140 113 182 41zM512 498q-126 0-233-60t-169-161-62-221h928q0 120-62 221t-169 161-233 60v0zM512 552q-86 0-147 61t-61 147 61 147 147 61 147-61 61-147-61-147-147-61zM512 904q-60 0-102-42t-42-102 42-102 102-42 102 42 42 102-42 102-102 42z" />
<glyph unicode="&#xe073;" glyph-name="logout" d="M96 448q0-114 56-209t151-151 209-56 209 56 151 151 56 209q0 96-42 180t-115 142-163 82v-68q112-32 184-125t72-211q0-94-47-175t-128-129-177-48-177 48-128 129-47 175q0 118 72 211t184 125v68q-90-24-163-82t-115-142-42-180zM480 992h64v-416h-64v416z" />
<glyph unicode="&#xe074;" glyph-name="machine-to-machine2" d="M882 670h-64q0 80-40 146t-106 106-146 40v64q96 0 178-48t130-130 48-178zM734 670h-64q0 60-42 102t-102 42v64q86 0 147-61t61-147zM434 702l124-122v-498q0-8-6-14t-16-6h-308q-8 0-15 6t-7 14v602q0 6 7 12t15 6h206zM460 766h-232q-34 0-60-24t-26-58v-600q0-36 25-61t61-25h304q36 0 62 25t26 59v528z" />
<glyph unicode="&#xe075;" glyph-name="managed-router-services" d="M512 912q80 0 153-30t129-88q78-76 105-179t0-206-105-179q-56-58-129-88t-153-30-153 30-129 88q-78 76-105 179t0 206 105 179q56 58 129 88t153 30zM512 976q-90 0-176-35t-152-101q-90-90-121-209t0-238 121-209q66-66 152-101t176-35 176 35 152 101q90 90 121 209t0 239-121 208q-66 66-152 101t-176 35v0zM574 328l-32-30v158h-64v-158l-28 28-44-44 104-106 108 108zM618 740l-108 108-104-106 44-44 28 28v-158h64v158l32-30zM348 618l-44-44 30-32h-158v-64h158l-28-28 46-44 104 104zM848 542h-158l30 32-44 44-108-108 106-104 44 44-28 28h158v64z" />
<glyph unicode="&#xe076;" glyph-name="managed-services" d="M926 682l68 20-76 230-72-18q-18 18-38 28v68h-250v-64l-34-30-58 20-58-182h-378v-736h544v470l56-42 38 52q24-6 48-2l38-50 198 140-38 52q2 8 6 22t6 22zM510 82h-416v608h350l10-4q2-12 10-34l6-12-36-50 76-58v-450zM862 714q-4-30-18-60l-10-20 22-32-92-66-22 32-20-4q-32-4-64 0l-20 4-22-32-92 66 22 32-10 20q-14 30-20 60l-2 20-38 12 34 110 36-16 12 16q16 18 48 38l20 10v42h122v-36l22-16q32-20 48-36l12-12 48 12 36-108-48-12zM694 858q-52 0-87-35t-35-86 35-86 86-35 86 35 35 86-35 86-87 35h2zM694 680q-24 0-41 17t-17 41 17 40 41 16 40-17 16-40-17-40-41-17h2zM142 562h320v-64h-320v64zM142 402h320v-64h-320v64zM142 242h320v-64h-320v64z" />
<glyph unicode="&#xe077;" glyph-name="member-services" d="M800 852q0-14-10-23t-23-9-22 8-9 23 9 24 23 9 23-9 9-23zM796 624h-54v172h54v-172zM368 304q94 0 167-55t95-137h-524q22 82 95 137t167 55zM368 368q-92 0-169-43t-122-117-45-160h672q0 86-45 160t-122 117-169 43v0zM384 400q-66 0-113 47t-47 113 47 113 113 47 113-47 47-113-47-113-113-47zM384 656q-40 0-68-28t-28-68 28-68 68-28 68 28 28 68-28 68-68 28zM768 912q68 0 114-46t46-114-46-114-114-46-114 46-46 114 46 114 114 46zM768 976q-62 0-113-30t-81-81-30-113 30-113 81-81 113-30 113 30 81 81 30 113-30 113-81 81-113 30v0z" />
<glyph unicode="&#xe078;" glyph-name="menu" d="M208 768h608v-64h-608v64zM208 544h608v-64h-608v64zM208 320h608v-64h-608v64z" />
<glyph unicode="&#xe079;" glyph-name="micro-sim2" d="M550 928l186-214v-576q0-18-12-30t-30-12h-364q-18 0-30 12t-12 30v748q0 18 12 30t30 12h220zM580 992h-250q-44 0-75-31t-31-75v-748q0-44 31-75t75-31h364q44 0 75 31t31 75v602z" />
<glyph unicode="&#xe07a;" glyph-name="minus" d="M114 544h796v-64h-796v64z" />
<glyph unicode="&#xe07b;" glyph-name="mobile-arrow-top-left" d="M718 128q10 0 17-7t7-18-7-19-18-7-18 8-7 18 7 18 17 7h2zM942 128v528q0 14-9 23t-23 9h-384q-16 0-25-9t-9-23v-624q2-14 10-23t22-9h386q14 0 22 9t8 23v96h2zM558 624h320v-54h-320v54zM878 64h-320v442h320v-442zM286 902l98-98 46 46-176 174-174-174 44-46 98 98v-396h194v64h-130v332z" />
<glyph unicode="&#xe07c;" glyph-name="mobile-broadband-arrow-top-left2" d="M982 496h-64q0 84-60 144t-144 60v64q72 0 134-36t98-98 36-134zM876 496h-64q0 40-29 69t-69 29v64q66 0 114-48t48-114zM706-4h-194q-36 0-62 26t-26 62v402q0 36 26 62t62 26h158l124-126v-364q0-36-26-62t-62-26zM512 510q-10 0-17-7t-7-17v-402q0-10 7-17t17-7h194q10 0 17 7t7 17v338l-86 88h-132zM250 906l96-98 46 44-174 176-176-176 46-44 98 98v-396h194v64h-130v332z" />
<glyph unicode="&#xe07d;" glyph-name="machine-to-machine" d="M882 670h-64q0 80-40 146t-106 106-146 40v64q96 0 178-48t130-130 48-178zM734 670h-64q0 60-42 102t-102 42v64q86 0 147-61t61-147zM434 702l124-122v-498q0-8-6-14t-16-6h-308q-8 0-15 6t-7 14v602q0 6 7 12t15 6h206zM460 766h-232q-34 0-60-24t-26-58v-600q0-36 25-61t61-25h304q36 0 62 25t26 59v528z" />
<glyph unicode="&#xe07e;" glyph-name="email" d="M32 864v-704h960v704h-960zM858 800l-350-276-344 276h694zM96 224v550l412-330 420 330v-550h-832z" />
<glyph unicode="&#xe07f;" glyph-name="mobile-plans" d="M882 370l-44 44 96 98-96 96 44 46 142-142zM142 368l-142 142 142 142 46-44-98-98 98-96zM484 238q0-12 8-20t20-8 20 8 8 20-8 21-20 9-20-9-8-21zM730 898h-436q-14 0-23-9t-9-23v-708q0-14 9-23t23-9h436q12 0 22 9t10 23v708q0 14-9 23t-23 9zM698 834v-74h-372v74h372zM326 190v506h372v-506h-372z" />
<glyph unicode="&#xe080;" glyph-name="mobile-share" d="M344 242q0-12 8-21t20-9 20 9 8 21-8 20-20 8-21-8-9-20h2zM902 642v192h-192v-64h80l-168-170v272q-6 26-32 26h-436q-14 0-23-9t-9-23v-708q0-14 9-23t23-9h436q12 0 22 10t10 22v266l168-170h-80v-64h192v192h-64v-84l-214 214 214 214v-84h64zM186 834h372v-70h-372v70zM558 190h-372v510h372v-510z" />
<glyph unicode="&#xe081;" glyph-name="mobile-tablet-devices" d="M274 102q0-10 7-18t18-8 18 8 7 19-7 18-18 7-18-7-7-19zM904 1024h-588q-18 0-29-11t-11-27v-298h-168q-16 0-24-9t-8-23v-624q0-14 8-23t24-9h384q14 0 23 9t9 23v32h386q18 0 28 11t10 27v884q0 16-13 27t-31 11zM460 64h-320v442h320v-442zM460 570h-320v54h320v-54zM884 128h-360v528q0 14-9 23t-23 9h-152v112h544v-672zM884 864h-544v96h544v-96zM580 192q0-14 10-23t23-9 22 9 9 23-9 23-22 9-23-9-10-23z" />
<glyph unicode="&#xe082;" glyph-name="mobile" d="M484 238q0-12 8-20t20-8 20 8 8 20-8 21-20 9-20-9-8-21zM730 898h-436q-14 0-23-9t-9-23v-708q0-14 9-23t23-9h436q12 0 22 9t10 23v708q0 14-9 23t-23 9zM698 834v-74h-372v74h372zM326 190v506h372v-506h-372z" />
<glyph unicode="&#xe083;" glyph-name="modem" d="M808 320h-588q-78 0-132 54t-54 132v10q0 78 54 133t132 55h584q78 0 132-54t54-132v-10q2-78-51-133t-131-55zM220 640q-52 0-87-36t-35-86v-10q0-52 35-88t87-36h584q52 0 87 36t35 86v10q0 50-35 85t-87 35h-584v4zM226 512q0-26 19-45t45-19 45 19 19 45-19 45-45 19-45-19-19-45zM446 512q0-26 19-45t45-19 45 19 19 45-19 45-45 19-45-19-19-45zM668 512q0-26 18-45t45-19 46 19 19 45-19 45-46 19-45-19-18-45z" />
<glyph unicode="&#xe084;" glyph-name="monitoring" d="M512 224q-110 0-228 66-84 50-162 128-44 44-68 74l-16 20 16 20q24 30 68 74 78 78 162 128 118 66 227 66t227-66q84-50 162-128 44-44 68-74l16-20-16-20q-24-30-68-74-78-78-162-128-118-66-226-66zM120 512q70-78 148-134 128-90 243-90t243 90q78 56 148 134-70 78-148 134-128 90-243 90t-243-90q-78-56-148-134zM400 508q-2-46 31-79t80-33 79 33 33 80-32 79-80 32-80-32-33-80h2z" />
<glyph unicode="&#xe085;" glyph-name="mouse" d="M432 576q0-34 23-57t57-23 57 23 23 57-23 57-57 23-57-23-23-57zM576 800h-28q-6 50-43 84t-89 34q-26 0-45 20t-19 48v6h-64v-6q0-56 37-94t91-38q24 0 43-15t25-39h-36q-66 0-113-47t-47-113v-448q0-66 47-113t113-47h128q66 0 113 47t47 113v448q0 64-48 112t-112 48zM672 192q0-40-28-68t-68-28h-128q-40 0-68 28t-28 68v448q0 40 28 68t68 28h128q40 0 68-28t28-68v-448z" />
<glyph unicode="&#xe086;" glyph-name="movie-ticket" d="M14 376l136-136q18 20 45 20t46-19 19-46-20-45l136-136 634 634-136 136q-18-20-45-20t-46 19-19 46 20 45l-136 136zM490 218l-114-114-58 58q8 34 0 67t-32 57-57 32-67 0l-58 58 114 114zM264 534l226 226 270-270-226-226zM706 862q-8-34 0-67t32-57 57-32 67 0l58-58-114-114-272 272 114 114z" />
<glyph unicode="&#xe087;" glyph-name="music" d="M966 276l-178 704h-644l154-600q-38 16-74 16-72 0-124-52t-52-124q0-44 26-85t70-66 92-25q72 0 118 50t46 126q0 32-10 56l-162 640h508l138-536q-38 16-74 16-72 0-124-52t-52-124 52-124 124-52 124 52 52 124q0 32-10 56zM236 108q-48 0-86 35t-38 77q0 48 32 80t80 32q38 0 67-22t39-58l2-8 2-10q2-8 2-14 0-50-28-81t-72-31zM800 108q-46 0-79 34t-33 79 33 78 79 33q38 0 69-23t39-59l4-10 2-8q2-10 2-14-4-44-37-77t-79-33z" />
<glyph unicode="&#xe088;" glyph-name="log-in2" d="M512 434q98 0 182-41t140-113 72-160h-788q16 88 72 160t140 113 182 41zM512 498q-126 0-233-60t-169-161-62-221h928q0 120-62 221t-169 161-233 60v0zM512 552q-86 0-147 61t-61 147 61 147 147 61 147-61 61-147-61-147-147-61zM512 904q-60 0-102-42t-42-102 42-102 102-42 102 42 42 102-42 102-102 42z" />
<glyph unicode="&#xe089;" glyph-name="my-community" d="M806 774q-16 52-68 70-36 18-77 48t-63 56q-36 40-84 40-24 0-48-10t-40-28l-4-2q-22-30-63-61t-75-43q-48-18-65-63t11-99q16-30 31-78t21-88q2-26 15-49t33-39q28-18 64-18 18 0 28 2 32 8 60 8v-384h64v96l176 176-44 44-132-128v198q20 0 52-6 26-8 51-3t45 23q40 28 44 86 4 36 19 85t33 77q30 42 16 90zM738 714q-22-36-40-92t-24-104q0-24-20-39t-44-5q-42 10-101 10t-103-10q-26-6-43 7t-21 41q-6 44-20 96-18 60-38 96-12 20-6 43t28 27q42 14 90 50t74 72q12 16 42 16 18 0 34-16 30-34 77-68t91-54q26-10 32-32 4-12-8-38zM514 838q-60 0-102-42t-42-102 42-102 102-42 102 42 42 102-42 102-102 42zM514 614q-32 0-56 23t-24 57 24 57 57 23 56-23 23-57-23-57-57-23z" />
<glyph unicode="&#xe08a;" glyph-name="my-plan-plus" d="M896 896v-512h-364l-244-188v188h-160v512h768zM960 960h-896v-640h160v-256l330 256h406v640zM686 670h-144v144h-64v-144h-140v-64h140v-140h64v140h144v64z" />
<glyph unicode="&#xe08b;" glyph-name="micro-sim" d="M550 928l186-214v-576q0-18-12-30t-30-12h-364q-18 0-30 12t-12 30v748q0 18 12 30t30 12h220zM580 992h-250q-44 0-75-31t-31-75v-748q0-44 31-75t75-31h364q44 0 75 31t31 75v602z" />
<glyph unicode="&#xe08c;" glyph-name="nbn-port-1" d="M440 558l80 34v-252h64v344l-144-60v-66zM866 712v128h-160v128h-386v-128h-162v-128h-160v-656h1028v656h-160zM962 120h-98v128h-64v-128h-64v128h-64v-128h-64v128h-64v-128h-64v128h-64v-128h-64v128h-64v-128h-64v128h-64v-128h-98v528h160v128h160v128h258v-128h160v-128h160v-528h2z" />
<glyph unicode="&#xe08d;" glyph-name="nbn-port-2" d="M574 476q24 26 34 44 14 26 14 54 0 50-31 80t-83 30q-70 0-114-58l42-42q14 18 28 26 18 12 40 12t36-14 14-36q0-30-26-58l-120-122v-50h222v60h-128zM864 712v128h-160v128h-384v-128h-160v-128h-160v-656h1024v656h-160zM960 120h-96v128h-64v-128h-64v128h-64v-128h-64v128h-64v-128h-64v128h-64v-128h-64v128h-64v-128h-64v128h-64v-128h-96v528h160v128h160v128h256v-128h160v-128h160v-528z" />
<glyph unicode="&#xe08e;" glyph-name="nbn-port-3" d="M576 514q50 22 50 76 0 44-33 70t-87 26q-74 0-112-52l40-40q26 34 68 34 24 0 40-12t16-32-16-31-42-11h-40v-58h40q28 0 47-11t19-32-17-32-43-11q-46 0-76 32l-38-44q40-48 116-48 52 0 86 24 38 28 38 74 0 26-15 46t-43 32h2zM864 712v128h-160v128h-384v-128h-160v-128h-160v-656h1024v656h-160zM960 120h-96v128h-64v-128h-64v128h-64v-128h-64v128h-64v-128h-64v128h-64v-128h-64v128h-64v-128h-64v128h-64v-128h-96v528h160v128h160v128h256v-128h160v-128h160v-528z" />
<glyph unicode="&#xe08f;" glyph-name="nbn-port-4" d="M596 556h-66v-90h-70l112 214h-72l-118-228v-46h148v-62h66v62h46v60h-46v90zM864 712v128h-160v128h-384v-128h-160v-128h-160v-656h1024v656h-160zM960 120h-96v128h-64v-128h-64v128h-64v-128h-64v128h-64v-128h-64v128h-64v-128h-64v128h-64v-128h-64v128h-64v-128h-96v528h160v128h160v128h256v-128h160v-128h160v-528z" />
<glyph unicode="&#xe090;" glyph-name="nbn-port-tick" d="M864 712v128h-160v128h-384v-128h-160v-128h-160v-656h1024v656h-160zM960 120h-96v128h-64v-128h-64v128h-64v-128h-64v128h-64v-128h-64v128h-64v-128h-64v128h-64v-128h-64v128h-64v-128h-96v528h160v128h160v128h256v-128h160v-128h160v-528zM482 346l-120 120 44 46 66-66 142 202 52-38z" />
<glyph unicode="&#xe091;" glyph-name="nbn-port" d="M864 712v128h-160v128h-384v-128h-160v-128h-160v-656h1024v656h-160zM960 120h-96v128h-64v-128h-64v128h-64v-128h-64v128h-64v-128h-64v128h-64v-128h-64v128h-64v-128h-64v128h-64v-128h-96v528h160v128h160v128h256v-128h160v-128h160v-528z" />
<glyph unicode="&#xe092;" glyph-name="network" d="M212 808q60 60 138 92t163 32 162-32 137-92l46 44q-68 70-158 107t-188 37v0q-98 0-187-37t-159-107zM290 732l44-46q50 50 114 67t128 0 114-67l44 46q-60 60-142 80t-162 0-140-80zM598 428q4 2 6 2 40 38 40 91t-39 90-91 37-89-38-37-91 38-89q2-2 6-2l-208-400h74l48 96h336l48-96h70zM468 564q18 20 44 20t45-19 19-45-19-45-46-19-44 19-17 46 18 43zM378 188l108 210q10-2 29-2t29 2l106-210h-272z" />
<glyph unicode="&#xe093;" glyph-name="news-weather" d="M880 672h144v64h-138v-20q0-44-6-44zM672 540v-124h64v124l-28-2zM736 892v132h-64v-132l36 4q28 0 28-4zM608 864l-92 92-46-44 94-92q24 32 44 44zM810 570l92-94 46 46-94 92q-14-24-44-44zM854 820l94 92-46 44-92-92q30-20 44-44zM134 576h314v-64h-314v64zM134 416h314v-64h-314v64zM134 224h314v-64h-314v64zM512 704v-640h-448v640h448zM576 768h-576v-768h576v768z" />
<glyph unicode="&#xe094;" glyph-name="no-sneaky-surprises" d="M970 100l-200 198q68 78 90 179t-7 201-105 176q-58 58-133 88t-155 30-154-29-134-89q-78-78-106-184t0-211 106-185q58-58 134-88t154-30q72 0 141 25t125 71l198-198zM218 320q-66 66-90 154t0 177 90 155q46 50 109 76t133 26 133-26 111-76q66-66 89-155t0-177-89-154q-50-50-112-76t-132-26-133 26-109 76zM272 724h380v-64h-380v64zM272 596h380v-64h-380v64zM272 468h380v-64h-380v64z" />
<glyph unicode="&#xe095;" glyph-name="notifications" d="M772 576q62 0 113 30t81 81 30 113-30 113-82 81-112 30q-52 0-98-22t-76-62q-62 48-140 52h-10q-72 0-133-38t-97-104-36-142v-218q0-110-39-212t-111-182h304q8-44 38-70t74-26 75 26 37 70h308q-72 80-111 182t-39 212v92q32-6 54-6zM742 160h-582q90 154 90 330v218q0 60 27 110t73 80 102 30h6q58 0 106-42-16-42-16-86 0-60 28-110t78-82v-118q0-88 23-173t65-157zM654 692q-42 46-42 108 0 22 2 32 4 26 30 64 22 30 55 47t73 17q66 0 113-46t47-114-47-114-113-46q-30 0-54 10-44 16-66 42h2zM868 832h-64v64h-64v-64h-64v-64h64v-64h64v64h64v64z" />
<glyph unicode="&#xe096;" glyph-name="officeapps" d="M780 240h-612q-46 10-82 44-50 46-50 112 0 72 56 116 28 26 70 40t90 14q4 80 56 142 30 36 69 56t83 20q78 0 136-46 52-38 78-104 60 34 122 34 44 0 89-28t73-76q30-52 30-110t-31-107-80-78-97-29zM178 304h602q30 0 64 19t54 51q26 36 26 80t-22 80q-20 32-50 51t-56 19q-64 0-122-48l-42-34-10 54q-10 58-48 98-46 46-114 46-30 0-57-14t-49-38q-24-28-35-62t-7-66l6-40-42 6q-42 2-81-8t-63-34q-32-28-32-68t34-68q22-18 44-24z" />
<glyph unicode="&#xe097;" glyph-name="online-payment" d="M64 240h896v-64h-896v64zM832 784v-416h-640v416h640zM896 848h-768v-544h768v544zM538 732v-34q46-6 80-30l-22-34q-26 18-62 22v-74q84-12 84-70 0-32-23-52t-61-24v-40h-38v40q-60 6-90 32l22 32q26-22 68-26v74h-4q-80 12-80 70 0 32 23 52t61 24v38h42zM500 588v68q-18-2-29-12t-11-24q0-22 40-32zM538 544v-68q18 4 30 13t12 23q0 22-42 32z" />
<glyph unicode="&#xe098;" glyph-name="optus-community" d="M368 306q94 0 167-55t95-139h-524q22 84 95 139t167 53v2zM368 370q-92 0-169-44t-122-117-45-159h672q0 86-45 159t-122 117-169 44v0zM384 402q-66 0-113 46t-47 113 47 114 113 46 113-47 47-113-47-113-113-46zM384 658q-40 0-68-29t-28-68 28-67 68-28 68 28 28 67-28 68-68 29zM928 914v-192h-150l-74-62v62h-96v192h320zM992 978h-448v-320h96v-128l160 128h192v320z" />
<glyph unicode="&#xe099;" glyph-name="optus-community2" d="M416 528q68 0 114 46t46 114-46 114-114 46-114-46-46-114 46-114 114-46zM416 784q40 0 68-28t28-68-28-68-68-28-68 28-28 68 28 68 68 28zM960 336q0 58-30 108t-80 80-106 30-104-25-76-69v-2q-72 38-160 38-94 0-172-43t-123-117-45-160h672q0 70-28 128h252v32zM138 240q22 82 95 137t167 55 167-55 95-137h-524zM668 368q-24 30-54 54v4q20 30 55 48t73 18q56 0 97-34t53-86h-224v-4zM746 564q50 0 86 35t36 86-36 86-86 35-86-35-36-86 36-86 86-35zM746 742q24 0 41-17t17-41-17-40-41-16-41 16-17 40 17 41 41 17z" />
<glyph unicode="&#xe09a;" glyph-name="optus-logo" horiz-adv-x="5186" d="M3886 424q0-100-58-152-54-50-149-50t-147 51-52 151v546q0 18-6 28t-24 16q-38 14-97 14t-97-14q-18-6-23-16t-5-28v-554q0-202 119-311t333-109 334 109 120 311v554q0 18-5 28t-23 16q-40 14-98 14-50 0-96-14-18-4-24-14t-6-30v-546h4zM2642 0q58 0 98 12 18 6 23 15t5 31v726h262q18 0 27 7t15 23q10 24 10 80 0 42-10 82-6 14-15 21t-27 7h-776q-18 0-27-7t-15-21q-8-24-8-82 0-42 8-80 6-16 15-23t27-7h262v-730q0-18 6-28t24-16h4q54-10 92-10zM550 1028q-160 0-285-67t-195-185-70-265 70-265 195-185 284-67 284 67 195 185 70 265-70 265-195 185-283 67zM550 222q-84 0-149 37t-102 103-37 148q0 128 80 208t208 80q82 0 148-37t102-102 36-149q-2-128-81-208t-205-80zM1718 1008h-416q-14 0-23-9t-9-23v-922q0-18 5-28t23-16q40-14 98-14t96 14q18 4 24 14t6 30v256h200q190 0 296 96 102 92 102 250-4 164-104 256-106 96-298 96zM1712 520h-190v274h190q70 0 109-34t39-101-39-103-109-36zM4300 114q94-60 214-90 112-30 228-30 130 0 230 41t156 119 56 182q0 118-86 190-84 68-252 98l-46 6q-124 22-168 42t-44 54q0 42 44 63t126 21q128 0 258-58 18-6 29-5t23 13q20 20 44 63t34 78-20 49q-166 80-367 80t-318-84-119-232q-2-130 84-204 82-68 248-94l52-6q84-14 128-26t63-28 19-42q0-44-47-71t-131-27q-74 0-156 26-76 22-172 72-18 8-28 7t-24-15q-20-18-44-63t-34-79q-4-20 1-31t19-19z" />
<glyph unicode="&#xe09b;" glyph-name="optus-rewards2" d="M800 702q0 80-39 146t-105 104-144 38-144-38-105-104-39-146q0-66 26-122t74-96l-74-450 262 124 262-124-74 450q48 40 74 96t26 122zM288 702q0 62 30 113t81 81 113 30 113-30 81-81 30-113-30-113-81-81-113-30-113 30-81 81-30 113zM692 142l-180 86-180-86 52 302q58-30 128-30t128 30z" />
<glyph unicode="&#xe09c;" glyph-name="other2" d="M304 704h416v-64h-416v64zM304 544h416v-64h-416v64zM304 384h416v-64h-416v64zM816 928v-832h-608v832h608zM880 992h-736v-960h736v960z" />
<glyph unicode="&#xe09d;" glyph-name="outbound" d="M810 684l-46-44 96-96h-530v-64h530l-96-96 46-44 172 172zM650 96h-544v832h544v-320h64v384h-672v-960h672v384h-64v-320z" />
<glyph unicode="&#xe09e;" glyph-name="paperless-bills" d="M1014 110l-202 368-56-32 150-272h-222l40 46-46 44-112-124 118-110 46 46-38 34h322zM234 380l16-58 64 18-54 158-154-46 18-64 48 16-162-294h342v64h-234zM534 660l158-38 44 154-64 20-12-56-148 254-182-318 58-32 124 222 90-158-54 16z" />
<glyph unicode="&#xe09f;" glyph-name="pause" d="M626 864h64v-704h-64v704zM338 864h64v-704h-64v704z" />
<glyph unicode="&#xe0a0;" glyph-name="phone-satchel" d="M510 1022l-446-362v-658h898v658zM510 940l368-294-142-112v180q0 14-9 23t-23 9h-384q-14 0-23-9t-9-23v-182l-140 114zM672 564v-82l-162-130-158 128v84h320zM352 628v54h320v-54h-320zM896 66h-768v514l382-310 386 310v-514z" />
<glyph unicode="&#xe0a1;" glyph-name="phone-search" d="M348 268q-12 0-20-9t-8-21 8-20 20-8 21 8 9 20-9 21-21 9zM828 310q44 60 46 136 0 92-66 158t-160 66q-26 0-50-6v202q0 14-9 23t-23 9h-436q-14 0-23-9t-9-23v-708q0-14 9-23t23-9h436q12 0 22 9t10 23v68q26-6 50-6 74 0 134 46l98-98 46 46zM162 834h372v-74h-372v74zM534 190h-372v506h372v-56q-26-16-46-36-32-32-49-73t-17-85q0-94 66-160 20-20 46-36v-60zM598 292q-38 12-64 40v0q-48 46-48 113t48 115v0q26 26 64 38 26 8 50 8 66 0 114-47t48-114-48-114-114-47q-24 0-50 8z" />
<glyph unicode="&#xe0a2;" glyph-name="pinterest" d="M512 992q-130 0-241-64t-175-175-64-241 64-241 175-175 241-64 241 64 175 175 64 241-64 241-175 175-241 64zM512 96q-92 0-172 38l64 180q44-22 104-22 72 0 130 34t92 92 34 129-34 130-92 93-129 34-130-34-93-93-34-129h64q0 80 56 136t137 56 136-56 55-137-55-136-137-55q-48 0-82 18l82 228-60 22-164-460q-86 56-137 148t-51 203 56 206 151 151 209 56 209-56 151-151 56-209-56-209-151-151-209-56z" />
<glyph unicode="&#xe0a3;" glyph-name="plans-pricing" d="M358 788l30-48q66 30 136 24l-2-48q-56 6-110-18l68-122 6 4q54 22 96 16 48-6 72-50t7-90-65-82l28-50-42-24-28 52q-38-18-78-25t-72-1l2 48q26-4 60 1t66 19l-68 122-12-8q-116-44-160 36-24 46-7 92t63 78l-28 50zM436 556l-64 116q-30-22-40-49t4-51q24-44 100-16zM506 532l64-116q30 22 41 49t-3 53q-24 42-102 14zM346 924l192-54 304-540-368-208-304 544 54 188zM336 992l-172-96-68-240 352-624 480 268-348 624z" />
<glyph unicode="&#xe0a4;" glyph-name="play" d="M176 810l592-298-592-298v596zM112 912v-800l800 400z" />
<glyph unicode="&#xe0a5;" glyph-name="plug" d="M992 640v64h-160v160h-272q-94 0-175-42t-131-116-58-162h-164v-64h164q8-88 59-161t132-116 173-43h272v160h160v64h-160v256h160zM768 224h-208q-82 0-152 39t-111 105-41 144 41 144 111 105 152 39h208v-576z" />
<glyph unicode="&#xe0a6;" glyph-name="plus" d="M896 544h-352v352h-64v-352h-352v-64h352v-352h64v352h352v64z" />
<glyph unicode="&#xe0a7;" glyph-name="optus-rewards" d="M800 702q0 80-39 146t-105 104-144 38-144-38-105-104-39-146q0-66 26-122t74-96l-74-450 262 124 262-124-74 450q48 40 74 96t26 122zM288 702q0 62 30 113t81 81 113 30 113-30 81-81 30-113-30-113-81-81-113-30-113 30-81 81-30 113zM692 142l-180 86-180-86 52 302q58-30 128-30t128 30z" />
<glyph unicode="&#xe0a8;" glyph-name="prepay-broadband" d="M1024 800q0 62-30 113t-81 81-113 30q-54 0-100-23t-76-63q-70 22-144 22-98 0-187-37t-156-107-102-156-35-180 35-180 102-156 156-107 187-37 187 37 156 107 102 156 35 180q0 74-22 144 40 30 63 76t23 100zM592 882q-4-10-8-24l-24 32q14-4 32-8zM636 512h-312q4 104 44 198t112 170q70-76 110-170t46-198zM182 772q94 94 222 118-66-82-103-179t-41-199h-192q4 72 34 139t80 121zM180 188q-106 112-116 260h196q4-104 40-200t100-178q-126 24-220 118zM476 80q-66 78-106 172t-46 196h310q-6-104-46-198t-112-170zM778 188q-94-94-222-118 132 166 142 378h198q-8-74-37-141t-81-119zM700 512q-2 44-10 92 50-28 110-28 42 0 80 16 12-40 16-80h-196zM860 652q-30-12-60-12-68 0-114 46t-46 114q0 32 12 62t34 52q46 46 114 46t114-46 46-114-48-114q-22-22-52-34zM782 796l-44 44-38-52 88-88 112 156-44 44z" />
<glyph unicode="&#xe0a9;" glyph-name="prepay-mobile2" d="M484 238q0-12 8-20t20-8 20 8 8 20-8 21-20 9-20-9-8-21zM730 898h-436q-14 0-23-9t-9-23v-708q0-14 9-23t23-9h436q12 0 22 9t10 23v708q0 14-9 23t-23 9zM698 834v-74h-372v74h372zM326 190v506h372v-506h-372zM538 648v-34q46-6 80-30l-22-34q-26 16-62 22v-74q84-12 84-70 0-32-23-52t-61-26v-38h-38v38q-60 6-90 32l22 32q26-20 68-26v74h-4q-80 12-80 70 0 34 23 53t61 25v38h42zM500 504v68q-18-4-29-13t-11-23q0-22 40-32zM538 460v-68q18 2 30 12t12 24q0 22-42 32z" />
<glyph unicode="&#xe0aa;" glyph-name="print" d="M192 240q0-20 14-34t34-14 34 14 14 34-14 34-34 14-34-14-14-34zM352 768h320v-64h-320v64zM352 608h320v-64h-320v64zM672 288h160v-64h-160v64zM832 416v544h-640v-544h-128v-352h896v352h-128zM256 896h512v-480h-512v480zM896 128h-768v224h768v-224z" />
<glyph unicode="&#xe0ab;" glyph-name="log-in" d="M512 434q98 0 182-41t140-113 72-160h-788q16 88 72 160t140 113 182 41zM512 498q-126 0-233-60t-169-161-62-221h928q0 120-62 221t-169 161-233 60v0zM512 552q-86 0-147 61t-61 147 61 147 147 61 147-61 61-147-61-147-147-61zM512 904q-60 0-102-42t-42-102 42-102 102-42 102 42 42 102-42 102-102 42z" />
<glyph unicode="&#xe0ac;" glyph-name="quick-forward" d="M132 806l288-194v194l424-294-424-294v194l-288-194v588zM356 928v-196l-288 196v-832l288 196v-196l600 416z" />
<glyph unicode="&#xe0ad;" glyph-name="recharge" d="M484 962v-68q80-4 152-50l-30-48q-50 34-122 44v-160h10q68-8 106-38 44-34 44-92t-46-96q-42-36-110-42v-72h-58v72q-46 2-92 18t-74 42l32 48q22-18 60-32t74-20v160h-10q-66 8-102 38-40 34-39 91t44 93 111 44v68h50zM430 684v152q-42-4-67-25t-25-52 22-49 70-26zM484 620v-154q44 4 70 25t26 55q0 52-96 74zM978 402l-148 146-146-150 44-44 74 76q-10-84-58-154t-123-110-161-40q-96 0-176 47t-127 126-47 173h-64q0-112 56-206t151-149 207-55q104 0 193 48t145 130 68 184l66-68z" />
<glyph unicode="&#xe0ae;" glyph-name="refresh" d="M974 378q26 90 15 185t-57 179q-62 114-172 180t-237 70-241-58q-82-44-141-119t-88-168-19-187 56-178q66-118 177-184t243-66h4v64h-4q-114 0-210 58t-152 160q-40 72-48 153t16 163 75 146 123 104q98 54 207 50t204-61 149-155q42-72 51-154t-15-162q-38-130-144-212l12 108-64 8-24-212 210-26 6 64-96 12q120 92 164 238z" />
<glyph unicode="&#xe0af;" glyph-name="reliable-network" d="M672 448v-128h-128v256h128v320h-320v-320h128v-256h-128v128h-320v-320h320v128h320v-128h320v320h-320zM416 832h192v-192h-192v192zM288 192h-192v192h192v-192zM928 192h-192v192h192v-192z" />
<glyph unicode="&#xe0b0;" glyph-name="roll-over" d="M972 380q28 94 18 188t-56 178q-62 112-172 177t-238 69-242-58q-84-46-144-120t-87-168-17-187 56-177q62-116 175-183t243-67v64q-114 0-211 58t-149 160q-40 70-49 151t14 162 74 145 127 104q98 54 209 51t206-60 147-153q40-72 49-153t-13-165q-38-128-144-214l12 110-64 6-24-212 210-26 6 64-96 14q116 96 160 242zM544 810v-64q78-4 144-48l-30-48q-52 36-114 42v-154h6q64-8 102-36 42-32 42-88t-44-92q-40-32-106-40v-68h-52v68q-44 2-88 18t-72 40l32 44q24-18 59-32t69-16v154h-10q-64 8-98 36-38 30-37 85t42 89 107 42v64zM492 544v144q-38-4-63-25t-27-51q0-50 90-68zM544 484v-148q42 4 67 24t25 52q0 56-92 72z" />
<glyph unicode="&#xe0b1;" glyph-name="ruler" d="M386 608l-370-368 224-224 768 768-224 224zM918 786l-46-46-68 68-46-46 68-68-44-44-68 68-46-46 68-68-44-46-68 68-46-44 68-68-46-46-68 68-44-44 68-70-46-44-68 68-46-46 70-68-46-44-68 68-46-46 68-68-46-46-66 68-46-44 68-68-46-46-132 132 680 680z" />
<glyph unicode="&#xe0b2;" glyph-name="safe-secure-22" d="M724 666v118q0 54-29 102t-77 77-103 29-103-29-76-77-28-102v-116q-68-46-108-121t-40-163q0-96 47-177t128-128 177-47 177 47 128 128 47 177q0 86-38 159t-102 123zM372 784q0 58 43 101t100 43 101-43 44-101v-80q-76 32-148 32-78 0-140-28v76zM512 96q-78 0-144 39t-105 105-39 144 39 144 105 105 144 39 144-39 105-105 39-144-39-144-105-105-144-39zM428 378q0-34 25-59t59-25 59 25 25 59-25 58-59 24-59-24-25-58z" />
<glyph unicode="&#xe0b3;" glyph-name="safe-secure-2" d="M724 666v118q0 54-29 102t-77 77-103 29-103-29-76-77-28-102v-116q-68-46-108-121t-40-163q0-96 47-177t128-128 177-47 177 47 128 128 47 177q0 86-38 159t-102 123zM372 784q0 58 43 101t100 43 101-43 44-101v-80q-76 32-148 32-78 0-140-28v76zM512 96q-78 0-144 39t-105 105-39 144 39 144 105 105 144 39 144-39 105-105 39-144-39-144-105-105-144-39zM428 378q0-34 25-59t59-25 59 25 25 59-25 58-59 24-59-24-25-58z" />
<glyph unicode="&#xe0b4;" glyph-name="satellite" d="M76 368h-64q0-96 48-177t128-128 176-47v64q-78 0-144 39t-105 105-39 144zM220 368h-64q0-86 61-147t147-61v64q-60 0-102 42t-42 102zM1012 410l-200 194 106 106q42 42 42 106 0 58-42 106-42 42-106 42-58 0-104-42l-106-106-192 192-240-240 194-196-130-130 208-208 130 130 196-194zM260 768l150 150 150-150-150-150zM324 442l434 432q24 24 59 24t60-25 25-57-26-58l-434-434zM768 560l150-150-150-150-150 150z" />
<glyph unicode="&#xe0b5;" glyph-name="satisfaction" d="M316 864q82 0 136-58l56-60 58 60q54 58 135 58t135-58q56-58 56-141t-56-143l-328-336-326 336q-58 58-58 141t58 143q54 58 134 58zM700 928q-48 0-96-20t-82-56l-14-14-12 14q-36 36-83 56t-96 20-97-20-82-56q-50-52-67-119t0-135 67-118l374-384 374 384q50 50 67 118t0 135-67 119q-82 76-186 76v0z" />
<glyph unicode="&#xe0b6;" glyph-name="search-large" d="M970 98l-198 198q68 80 89 181t-7 201-104 174q-58 60-134 90t-156 30-154-30-132-90q-80-78-107-183t0-211 107-184q58-58 133-88t155-30q70 0 139 24t127 72l198-200zM218 318q-66 66-89 155t0 177 89 154q48 50 111 77t133 27 133-27 109-77q66-66 90-154t0-177-90-155q-48-48-111-75t-132-27-132 26-111 76z" />
<glyph unicode="&#xe0b7;" glyph-name="search-small" d="M764 306l-114 114q48 62 42 143t-62 137q-32 32-71 48t-82 16-82-16-71-48q-42-42-56-97t0-111 56-98q32-30 71-46t81-16q72 0 130 42l112-114zM476 396q-62 0-107 44t-45 107 45 108 108 45 107-45 44-108-44-107-108-44z" />
<glyph unicode="&#xe0b8;" glyph-name="security" d="M732 800q-12 82-74 137t-146 55-146-55-74-137h-132v-768h704v768h-132zM800 96h-576v640h128v32q0 68 46 114t114 46 114-46 46-114v-32h128v-640zM512 560q-34 0-57-23t-23-57q0-24 13-44t35-30v-150h64v150q22 10 35 30t13 44q0 34-23 57t-57 23z" />
<glyph unicode="&#xe0b9;" glyph-name="settings" d="M638 48h-256v100q-72 24-130 72l-88-48-128 222 90 44-2 20q-8 36-8 58 0 40 10 72l-86 48 128 218 86-48q56 48 132 74v96h256v-100q72-24 130-72l88 48 128-218-88-48q8-22 8-74 0-40-10-74l86-48-128-218-86 48q-56-46-132-72v-100zM446 112h128v84l22 6q78 18 148 82l16 16 74-40 64 108-74 42 8 30q12 50 12 76 0 46-10 80l-10 24 74 42-64 110-74-42-16 16q-64 58-148 82h-22v84h-128v-84l-22-6q-82-18-148-80l-18-16-70 38-64-108 72-42-8-26q-10-50-10-76 0-36 12-86l6-26-70-38 64-106 74 42 16-16q64-58 148-84l22-6v-80h-4zM512 374q-58 0-99 40t-41 98 41 98 99 40 99-40 41-98-41-98-99-40zM512 586q-32 0-54-22t-22-52 22-52 54-22 54 22 22 52-22 52-54 22z" />
<glyph unicode="&#xe0ba;" glyph-name="international-minutes" d="M514 992h-32v-492l218-202 44 48-198 178v404q106-8 194-65t139-150 51-201q0-114-56-209t-152-151-208-56q-138 0-247 81t-151 211l-12 38-6 42q-10 104 32 204t124 166l-12-112 64-6 26 212-216 24-6-64 96-12q-82-70-127-166t-45-202v0q0-36 2-54v-4q2-6 4-20t3-20 5-16l2-8q2-2 3-10t3-12q16-52 38-92v0q64-110 175-177t242-67 241 64 174 175 65 241-63 240-174 175-240 65z" />
<glyph unicode="&#xe0bb;" glyph-name="shared-data" d="M838 308q-30 0-60-18l-98 100q40 54 40 122t-40 122l98 100q30-18 60-18 52 0 87 36t35 86-36 86-86 36-86-36-36-86q2-30 18-60l-100-98q-54 40-122 40t-122-40l-100 98q18 30 18 60 0 52-36 87t-86 35-86-36-36-86 36-86 86-36q30 0 60 18l98-100q-40-54-40-122t40-122l-98-100q-30 18-60 18-50 0-86-36t-36-86 36-86 86-36 86 36 36 86q0 30-18 60l100 98q54-40 122-40t122 40l100-98q-18-30-18-60 0-50 36-86t86-36 86 36 36 86-36 86-86 36zM838 896q24 0 41-17t17-41-17-41-41-17-41 17-17 41 17 41 41 17zM128 838q0 24 17 41t41 17 41-17 17-41-17-41-41-17-41 17-17 41zM186 128q-24 0-41 17t-17 41 17 41 41 17 41-17 17-41-17-41-41-17zM512 368q-40 0-76 22-28 18-46 46-22 36-22 76t22 76q18 28 46 46 36 22 76 22t76-22q28-18 46-46 22-36 22-76t-22-76q-18-28-46-46-36-22-76-22zM838 128q-24 0-41 17t-17 41 17 41 41 17 41-17 17-41-17-41-41-17z" />
<glyph unicode="&#xe0bc;" glyph-name="shared-services" d="M784 952h-436q-14 0-23-9t-9-23v-76h-76q-14 0-23-9t-9-23v-708q0-14 9-23t23-9h436q12 0 22 10t10 22v52h76q12 0 22 8t10 20v736q0 14-9 23t-23 9zM380 892h372v-74h-44q-6 26-32 26h-296v48zM644 780v-72h-372v72h372zM272 136v508h372v-508h-372zM708 220v534h44v-534h-44zM428 188q0-12 9-21t21-9 20 9 8 21-8 20-20 8-21-8-9-20z" />
<glyph unicode="&#xe0bd;" glyph-name="mobile-broadband-arrow-top-left" d="M982 496h-64q0 84-60 144t-144 60v64q72 0 134-36t98-98 36-134zM876 496h-64q0 40-29 69t-69 29v64q66 0 114-48t48-114zM706-4h-194q-36 0-62 26t-26 62v402q0 36 26 62t62 26h158l124-126v-364q0-36-26-62t-62-26zM512 510q-10 0-17-7t-7-17v-402q0-10 7-17t17-7h194q10 0 17 7t7 17v338l-86 88h-132zM250 906l96-98 46 44-174 176-176-176 46-44 98 98v-396h194v64h-130v332z" />
<glyph unicode="&#xe0be;" glyph-name="business-portal" d="M704 732v8q0 78-56 135t-136 57-136-57-56-135v-8h-288v-640h960v640h-288zM384 740q0 52 38 90t90 38 90-38 38-90v-8h-256v8zM928 156h-832v512h832v-512z" />
<glyph unicode="&#xe0bf;" glyph-name="sms-text" d="M372 238q0-12 8-20t20-8 20 8 8 20-8 21-20 9-20-9-8-21zM650 760v106q0 14-9 23t-23 9h-436q-14 0-23-9t-9-23v-708q0-14 9-23t23-9h436q12 0 22 9t10 23v256l34 26h190v320h-224zM214 834h372v-74h-372v74zM586 190h-372v506h212v-256h96v-128l64 50v-172zM810 504h-150l-74-60v60h-96v192h320v-192z" />
<glyph unicode="&#xe0c0;" glyph-name="solutions" d="M236 64h-172v204l358 360q-6 18-6 64 0 74 37 135t99 97 135 36 136-36 100-98 37-135-37-134-99-96-136-35q-48 0-96 18l-74-64-34-92-80-12-16-90-94-22zM128 128h70l58 92 80 16 16 90 86 14 30 72 86 78 12 34 32-16q40-22 94-22t102 28 77 74 28 101-30 103-77 76-104 28-103-28-76-74-29-100q0-36 10-60l10-20-372-370v-116zM678 732q0-26 19-45t45-19 45 19 19 46-19 45-45 18-45-18-19-46z" />
<glyph unicode="&#xe0c1;" glyph-name="sound-level-1" d="M578 736v-448l-154 116-18 12h-116v192h122zM642 864l-252-192h-164v-320h160l256-192v704zM726 336l-46 44q54 54 54 131t-54 129l46 44q46-46 63-110t0-127-63-111z" />
<glyph unicode="&#xe0c2;" glyph-name="sound-level-3" d="M432 742v-448l-154 116-18 12h-116v192h122zM496 870l-252-192h-164v-320h160l256-192v704zM794 150l-46 46q66 64 99 145t33 170-34 172-98 145l46 46q72-72 111-167t39-196-39-195-111-166zM684 246l-44 46q60 60 81 142t0 164-81 142l44 44q74-72 99-170t0-196-99-172zM580 342l-46 46q54 52 54 129t-54 129l46 46q46-48 63-112t0-127-63-111z" />
<glyph unicode="&#xe0c3;" glyph-name="sound-mute" d="M460 736v-448l-152 116-20 12h-116v192h122zM524 864l-252-192h-164v-320h160l256-192v704zM916 604l-46 46-90-90-92 90-44-46 88-88-88-94 44-44 92 90 90-90 46 44-90 94z" />
<glyph unicode="&#xe0c4;" glyph-name="sound" d="M506 736v-448l-154 116-18 12h-116v192h122zM570 864l-252-192h-164v-320h160l256-192v704zM760 240l-46 44q60 62 81 144t0 164-81 140l46 46q72-72 97-170t0-196-97-172zM654 336l-46 44q54 54 54 131t-54 129l46 44q46-46 63-110t0-127-63-111z" />
<glyph unicode="&#xe0c5;" glyph-name="chat-bubble" d="M896 896v-512h-364l-244-188v188h-160v512h768zM960 960h-896v-640h160v-256l330 256h406v640z" />
<glyph unicode="&#xe0c6;" glyph-name="speed" d="M484 4v368h-212l272 648v-350h208zM368 436h176v-104l112 274h-176v96z" />
<glyph unicode="&#xe0c7;" glyph-name="stop" d="M512 992q-130 0-241-64t-175-175-64-241 64-241 175-175 241-64 241 64 175 175 64 241-64 241-175 175-241 64zM96 512q0 82 30 155t86 129l588-588q-60-52-130-82-76-30-158-30-114 0-209 56t-151 151-56 209zM842 256l-586 586q54 40 119 63t137 23q114 0 209-56t151-151 56-209q0-72-23-137t-63-119z" />
<glyph unicode="&#xe0c8;" glyph-name="coverage-maps" d="M512 34l-218 352q-24 40-44 86-18 42-26 74-16 72-16 114 0 88 40 164t109 120 151 46h4q84-2 153-46t110-119 41-165q0-50-16-114-8-32-26-72-20-48-44-88zM512 926h-4q-64-2-118-38t-86-96-32-132q0-48 12-98 24-80 64-144l164-266 164 266q22 36 40 78 14 38 20 66 12 50 12 98 2 72-29 132t-86 96-121 38zM512 542q-60 0-102 42t-42 102 42 102 102 42 102-42 42-102-42-102-102-42zM512 766q-34 0-57-23t-23-57 23-57 57-23 57 23 23 57-23 57-57 23z" />
<glyph unicode="&#xe0c9;" glyph-name="subscribe-12" d="M900 32h-868v864h576v-64h-512v-736h740v512h64v-576zM838 902l62-60-532-538h-64v58zM838 992l-598-602v-146h154l598 594z" />
<glyph unicode="&#xe0ca;" glyph-name="subscribe-1" d="M900 32h-868v864h576v-64h-512v-736h740v512h64v-576zM838 902l62-60-532-538h-64v58zM838 992l-598-602v-146h154l598 594z" />
<glyph unicode="&#xe0cb;" glyph-name="success-alert" d="M512 1024q-138 0-256-69t-187-187-69-256 69-256 187-187 256-69 256 69 187 187 69 256-69 256-187 187-256 69zM480 282l-186 186 46 44 128-128 248 358 58-38z" />
<glyph unicode="&#xe0cc;" glyph-name="other" d="M304 704h416v-64h-416v64zM304 544h416v-64h-416v64zM304 384h416v-64h-416v64zM816 928v-832h-608v832h608zM880 992h-736v-960h736v960z" />
<glyph unicode="&#xe0cd;" glyph-name="tablet-usb" d="M992 640h-192v64h-576q-80 0-136-56t-56-136 56-136 136-56h576v64h192v256zM736 634v-254h-512q-52 0-90 38t-38 91 38 90 90 37zM928 448h-128v128h128v-128z" />
<glyph unicode="&#xe0ce;" glyph-name="tablet" d="M804 992h-590q-16 0-27-11t-11-27v-884q0-16 11-27t27-11h596q16 0 27 11t11 27v884q0 16-14 27t-30 11zM784 928v-96h-544v96h544zM240 96v672h544v-672h-544zM480 160q0-14 9-23t23-9 23 9 9 23-9 23-23 9-23-9-9-23z" />
<glyph unicode="&#xe0cf;" glyph-name="tailor" d="M736 608l236 128-32 58-204-112v124l144 202h-740l148-202v-362l-236-128 32-56 204 112v-152l-148-204h740l-144 204v388zM758 944l-70-96h-352l-70 96h492zM428 518l-76-42v308h320v-138l-108-58 32-56 76 40v-332h-320v166l106 58zM266 80l70 96h352l68-96h-490z" />
<glyph unicode="&#xe0d0;" glyph-name="threat-management" d="M482 374v-362h64v362q-14-4-31-4t-33 4zM370 544h-356v-64h358q-4 18-4 38 0 12 2 26zM546 660v352h-64v-352q18 4 34 4t30-4zM1014 544h-356q2-14 2-26 0-20-4-38h358v64zM514 120q-106 0-196 53t-143 143-53 196 53 196 143 143 196 53 197-53 143-143 52-196-53-196-143-143-196-53zM514 840q-88 0-164-44t-120-120-44-165 44-164 120-119 165-44 164 44 119 119 44 164-44 165-119 120-165 44z" />
<glyph unicode="&#xe0d1;" glyph-name="tick2" d="M404 118l-312 314 44 44 262-262 484 692 50-38z" />
<glyph unicode="&#xe0d2;" glyph-name="tools-22" d="M234 74l-160 160 420 418q-18 62-3 123t61 107q50 50 119 64t133-12l46-20-144-140 66-68 144 144 16-44q26-68 13-137t-63-119q-46-46-109-62t-123 4zM164 234l70-72 400 404 20-6q48-20 97-9t85 47q26 26 40 62t12 72l-112-112-160 154 112 112q-38 2-72-10t-60-38q-36-38-46-87t8-95l6-20z" />
<glyph unicode="&#xe0d3;" glyph-name="tools-2" d="M234 74l-160 160 420 418q-18 62-3 123t61 107q50 50 119 64t133-12l46-20-144-140 66-68 144 144 16-44q26-68 13-137t-63-119q-46-46-109-62t-123 4zM164 234l70-72 400 404 20-6q48-20 97-9t85 47q26 26 40 62t12 72l-112-112-160 154 112 112q-38 2-72-10t-60-38q-36-38-46-87t8-95l6-20z" />
<glyph unicode="&#xe0d4;" glyph-name="faq" d="M512 924q114 0 209-55t151-150 56-207-56-207-151-150-209-55-209 55-151 150-56 207 56 207 151 150 209 55zM512 988q-130 0-240-64t-175-173-65-239 65-239 175-173 240-64 240 64 175 173 65 239-65 239-175 173-240 64v0zM448 404v128h28q70 0 107 27t37 74-38 72-106 25q-12 0-32-2l-24-2-8 68q40 6 68 6 98 0 156-44t58-120q0-68-48-112t-138-54l-2-66h-58zM532 268q0-20-17-37t-38-17-38 17-17 38 17 38 38 17 38-17 17-39z" />
<glyph unicode="&#xe0d5;" glyph-name="track-order" d="M736 928v64h-448v-64h-160v-896h768v896h-160zM352 928h320v-96h-320v96zM832 96h-640v768h96v-96h448v96h96v-768zM288 640h448v-64h-448v64zM288 480h448v-64h-448v64zM288 320h448v-64h-448v64z" />
<glyph unicode="&#xe0d6;" glyph-name="prepay-mobile" d="M484 238q0-12 8-20t20-8 20 8 8 20-8 21-20 9-20-9-8-21zM730 898h-436q-14 0-23-9t-9-23v-708q0-14 9-23t23-9h436q12 0 22 9t10 23v708q0 14-9 23t-23 9zM698 834v-74h-372v74h372zM326 190v506h372v-506h-372zM538 648v-34q46-6 80-30l-22-34q-26 16-62 22v-74q84-12 84-70 0-32-23-52t-61-26v-38h-38v38q-60 6-90 32l22 32q26-20 68-26v74h-4q-80 12-80 70 0 34 23 53t61 25v38h42zM500 504v68q-18-4-29-13t-11-23q0-22 40-32zM538 460v-68q18 2 30 12t12 24q0 22-42 32z" />
<glyph unicode="&#xe0d7;" glyph-name="tree" d="M554 0h-64v196h318l-182 258h102l-158 228h70l-128 216-128-216h70l-158-228h102l-182-258h210v-64h-334l182 258h-100l158 228h-60l240 406 240-406h-58l158-228h-102l182-258h-378v-132z" />
<glyph unicode="&#xe0d8;" glyph-name="tv" d="M736 736h-128l116 224h-74l-116-224h-54l-112 224h-70l112-224h-378v-672h960v672h-256zM928 128h-832v544h832v-544z" />
<glyph unicode="&#xe0d9;" glyph-name="twitter" d="M414 118q-170 0-306 102l-72 56 88 2q72 6 118 30-80 56-123 144t-43 192q0 116 54 210l22 36 28-26q124-112 286-164 12 88 77 147t153 59q80 0 148-52h144l-68-182q4-16 4-44-2-140-71-256t-185-185-254-69zM216 228q86-46 198-46 120 0 221 60t161 161 60 221q0 28-4 42l-2 10 42 112h-46l-18-10-16 16q-46 44-117 44t-120-49-49-121v-54l-42 14q-186 48-316 160-28-68-28-144 0-98 46-179t130-129h108l-100-60q-46-26-108-48z" />
<glyph unicode="&#xe0da;" glyph-name="update" d="M896 520q0 110-59 204t-159 142l-28-58q82-38 132-117t50-171q0-114-72-201t-184-109l54 82-54 32-108-166 166-108 34 54-66 44q128 32 211 135t83 237zM388 974l-36-50 68-46q-128-32-210-135t-82-235q0-110 59-204t159-142l28 58q-84 40-133 118t-49 170q0 114 72 201t184 109l-54-84 54-34 108 166z" />
<glyph unicode="&#xe0db;" glyph-name="upgrade-your-contract" d="M820 884v-64h92l-232-232-70 68-278-278-70 70-262-262 46-46 216 218 70-70 278 278 70-70 280 282v-98h64v204h-204zM958 820h2v-2z" />
<glyph unicode="&#xe0dc;" glyph-name="upload" d="M928 428v-224h-832v224h-64v-288h960v288h-64zM480 756v-392h64v382l100-116 50 46-186 208-184-208 50-46z" />
<glyph unicode="&#xe0dd;" glyph-name="usage" d="M992 34h-960v956h64v-892h896v-64zM160 322h736v-64h-736v64zM160 546h416v-64h-416v64zM160 770h672v-64h-672v64z" />
<glyph unicode="&#xe0de;" glyph-name="usb" d="M1024 512l-192 128v-96h-448l128 128h106q6-22 22-28 10-4 34-4t43 19 19 45-19 45-43 19-34-4q-16-6-22-28h-132l-192-192h-134q-10 24-30 38t-46 14q-34 0-59-25t-25-59 25-59 59-25q26 0 46 14t30 38h202l170-192h108v-32h128v128h-128v-32h-84l-112 128h388v-96z" />
<glyph unicode="&#xe0df;" glyph-name="tick" d="M404 118l-312 314 44 44 262-262 484 692 50-38z" />
<glyph unicode="&#xe0e0;" glyph-name="dollar-magnify" d="M474 854v-64q78-4 144-48l-28-44q-54 36-116 42v-154h6q66-8 102-36 42-32 42-88t-44-92q-40-32-106-40v-68h-52v68q-42 2-86 18t-74 40l32 44q24-18 59-32t69-16v154h-8q-66 8-100 36-38 30-37 85t42 89 107 42v64h48zM422 588v144q-38-4-62-25t-28-51q6-50 90-68zM474 528v-148q42 6 67 26t25 52q6 54-92 70zM996 74l-218 218q70 82 93 187t-7 209-108 182q-62 62-140 94t-161 32-161-32-140-94q-82-82-111-191t0-219 111-192q62-60 140-92t160-32q76 0 148 26t130 76l218-218zM198 314q-68 68-93 162t0 187 93 163q52 50 118 78t138 28 138-28 118-78q70-70 94-163t0-187-94-162q-50-50-117-78t-138-28-137 27-120 79z" />
<glyph unicode="&#xe0e1;" glyph-name="voice" d="M896 896v-512h-364l-244-188v188h-160v512h768zM960 960h-896v-640h160v-256l330 256h406v640zM224 800h576v-64h-576v64zM224 672h576v-64h-576v64zM224 544h576v-64h-576v64z" />
<glyph unicode="&#xe0e2;" glyph-name="warning-alert" d="M512 1024q-138 0-256-69t-187-187-69-256 69-256 187-187 256-69 256 69 187 187 69 256-69 256-187 187-256 69zM218 320l300 518 302-518h-602zM634 428l-122 224-122-224h244z" />
<glyph unicode="&#xe0e3;" glyph-name="warning" d="M462 204q0 22 15 35t36 13 35-14 14-35-14-36-34-15-36 15-16 37zM476 636h70v-324h-70v324zM996 30h-968l484 968zM132 94h760l-380 760z" />
<glyph unicode="&#xe0e4;" glyph-name="wholesale" d="M1020 762l-448 204-72-154-74 158-422-202 92-204v-334l416-176 416 176v330zM512 688l294-124-294-122-294 124zM604 884l334-154-58-126-340 142zM396 884l68-144-316-136-62 132zM512 124l-352 148v246l352-146 352 146v-246z" />
<glyph unicode="&#xe0e5;" glyph-name="wifi-1" d="M544 790h-64v-508h-384v-256h832v256h-384v508zM864 90h-704v128h704v-128zM252 502q-44 46-68 104t-24 123 24 123 68 102l-44 44q-56-54-84-124t-28-145 29-146 83-125zM314 554l44 44q-52 56-52 133t52 129l-44 46q-48-48-65-112t0-128 65-112zM770 502l46-44q74 74 100 173t0 197-100 170l-46-44q62-62 84-144t0-164-84-144zM710 554q48 48 64 112t0 128-64 112l-44-46q52-52 52-129t-52-133z" />
<glyph unicode="&#xe0e6;" glyph-name="wifi" d="M32 112q0-34 23-57t57-23 57 23 23 57-23 57-57 23-57-23-23-57zM992 32h-64q0 242-122 452-120 202-322 322-210 122-452 122v64q260 0 484-132 216-128 344-344 132-224 132-484zM736 32h-64q0 174-88 322-84 146-230 230-148 88-322 88v64q190 0 354-96 160-94 254-254 96-164 96-354zM480 32h-64q0 104-52 192t-140 140-192 52v64q122 0 225-60t163-163 60-225z" />
<glyph unicode="&#xe0e7;" glyph-name="wishlist" d="M708 38l-196 144-196-144-38 240-240 38 144 196-144 196 240 38 38 240 196-144 196 144 38-240 240-38-144-196 144-196-240-38zM512 262l148-108 28 182 182 28-108 148 108 148-182 28-28 182-148-108-148 108-28-182-182-28 108-148-108-148 182-28 28-182z" />
<glyph unicode="&#xe0e8;" glyph-name="world-globe" d="M496 178q80 8 152 42t130 92q80 82 113 189t15 217-86 200q-22 28-42 48l-90-90-2 2q-48 48-110 73t-127 25-127-25-110-73q-64-64-87-151t0-174 87-151l2-2-92-90q20-20 50-40 116-88 260-94v-64h-304v-64h672v64h-304v66zM256 448q-52 52-70 122t0 140 70 122q40 38 89 59t104 21 105-21 88-59v0q22-24 40-52 48-80 37-173t-77-159q-38-38-88-59t-104-21q-76 0-140 40-30 16-52 38zM262 360q86-56 188-56 64 0 126 25t110 73q86 86 97 206t-55 218l46 46q56-78 70-171t-15-184-97-159q-56-58-129-88t-153-30q-128 0-234 74z" />
<glyph unicode="&#xe0e9;" glyph-name="youtube" d="M928 768v-512h-832v512h832zM992 832h-960v-640h960v640zM608 512l-192 96v-192z" />
</font>
</defs>
</svg>
